<svg version="1.1" xmlns="http://www.w3.org/2000/svg" xmlns:xlink="http://www.w3.org/1999/xlink" width="1024" height="1024" viewBox="0 0 1024 1024"><path stroke="none" fill="black" fill-rule="evenodd" d="M272.7899012392515,878.0L0.0,878.0L-1.1102281161960386e-16,637.4607525551478L-2.220456232392077e-16,396.9215051102957L56.25,397.2205019464519C111.2848623004391,397.51303971900523 112.64041591194926,397.56732174441765 119.0,399.733273898594C122.575,400.9508502123862 128.4217212318584,403.64646298629935 131.99271384857423,405.7235245072899C135.56370646529007,407.80058602828046 141.87289054163193,412.875 146.01312290711172,417.0C150.9831511909683,421.9517430088813 154.77643296716118,426.8783731917108 157.17746520877125,431.5C159.17762110920424,435.35 162.16901428044184,443.0 163.82500558929922,448.5C165.48099689815663,454.0 168.93348417203774,465.7 171.49719953125725,474.5C174.06091489047677,483.3 179.24266704070962,500.85 183.0122043095525,513.5C186.78174157839533,526.15 194.86420359141394,553.375 200.9732310051494,574.0C207.08225841888483,594.625 214.0748056821494,618.25 216.51222492351508,626.5C218.94964416488077,634.75 226.15126881876017,659.05 232.51583526546932,680.5C238.88040171217847,701.95 246.74225215912662,728.5 249.98661403646523,739.5C253.23097591380383,750.5 259.31739171988534,771.2 263.51198249442416,785.5C267.7065732689629,799.8 271.48233031370387,812.625 271.9025537049596,814.0L272.6665962345154,816.5L378.0832981172577,816.7427643591154L483.5,816.9855287182307L478.5,814.6251094699878C475.75,813.3268788834541 472.460093502996,811.1344589930274 471.18909667332457,809.7530652690393C469.91809984365307,808.3716715450514 467.0525817233903,803.0246162451589 464.8212786282962,797.8707201581669C462.5899755332022,792.7168240711751 457.02546537818375,777.25 452.45570050603305,763.5C447.8859356338823,749.75 441.2118873832311,728.15 437.62448217125257,715.5C434.03707695927403,702.85 429.9311061477618,688.0 428.5001025901143,682.5C427.0690990324668,677.0 424.1545221975095,664.5882629435628 422.0232651790982,654.9183620968062C419.8920081606868,645.2484612500496 417.2200289129138,631.9734612500496 416.0855335173803,625.4183620968062C414.95103812184686,618.8632629435627 413.5676813277181,609.6868054715171 413.01140730820526,605.0262343811492C412.4551332886924,600.3656632907811 412.00000000000006,595.7648394501645 412.0,594.802181402001C411.99999999999994,593.291634633364 412.6755794302212,593.4502299904112 416.9322400074375,595.960047272438C419.64497201152807,597.5595315493418 424.9324720115281,600.1804031507213 428.6822400074375,601.7842063866144C432.4320080033469,603.3880096225076 436.9475800039077,605.2660785991637 438.71684445312826,605.9576930014057C440.4861089023488,606.6493074036478 442.42739881181006,607.8100577762353 443.0308220297088,608.5371382738226C443.63424524760757,609.2642187714098 445.46907470845935,619.00330468154 447.1082208316016,630.1795514074452C448.7473669547439,641.3557981333503 452.3463080209291,661.75 455.1058676453465,675.5C457.865427269764,689.25 461.69529339372133,706.8 463.61668125414064,714.5C465.53806911456,722.2 469.59592028836374,736.825 472.6341283070378,747.0C475.67233632571197,757.175 479.97571620124825,770.675 482.19719469711845,777.0C484.41867319298865,783.325 487.05439349193,790.5813528739034 488.054350916988,793.1252286086742C489.0543083420461,795.6691043434449 490.8339166396007,799.7958781171111 492.009036022665,802.2958369945991C493.45333495906556,805.3684507220534 495.22403877906805,807.3529615462214 497.47393748210095,808.4206083859249C500.2517854307717,809.7387835462451 505.2428078689959,809.9983843136215 527.6511291225282,809.990231084296C553.664666989482,809.9807661030778 554.6557884998862,809.9079151292678 559.5072788516364,807.6486902083914C562.2612822200365,806.366215630281 565.9076660366352,803.7302555123983 567.6103539996336,801.7910010575408C569.5577292000677,799.5730632352341 571.3240392889589,795.8974068299289 572.3717923351091,791.8825419334455C573.2878954566221,788.3721438700504 577.3882934457633,772.225 581.483787866534,756.0C585.5792822873047,739.775 595.5174905652246,699.95 603.5686951508006,667.5C611.6198997363766,635.05 618.8391802908849,606.1684876019534 619.6115408274859,603.3188613376744C620.8851554422853,598.6198568120491 621.5149654664599,597.8521478416831 626.3796429338915,595.0688613376744C629.3297385558137,593.3809876019535 631.9840473687705,592.0 632.2781069626842,592.0C632.572166556598,592.0 632.6460151066967,592.7875 632.4422148517925,593.75C632.2384145968883,594.7125 630.4318372207355,602.3887937970684 628.4275984603418,610.808430660152C626.423359699948,619.2280675232355 624.9685367614101,626.3018700947911 625.194658596924,626.5279919302753C625.4207804324379,626.7541137657596 629.127051961409,625.5718118895903 633.4308175501931,623.9006544276768C638.0025564955074,622.1254425824283 644.0908156625052,620.6245126387971 648.0747040034219,620.2905177587372C651.9418045072416,619.9663139511939 657.6221090576462,620.2512558025372 661.1967810567035,620.948762205994C664.6635514755166,621.6252143579885 670.5534502376671,623.7775955240139 674.2854449725935,625.7318314638283C678.3599339182814,627.8654123768774 682.9155668696807,631.3255649552368 685.6880632372421,634.392493859018C688.2275085478723,637.2016222365581 691.6024268247444,642.2557706896447 693.187881630291,645.6239348658771C694.7733364358378,648.9920990421094 696.5083959007251,654.4667887446599 697.0435693300407,657.7899119826559C697.6831468480171,661.7613253527211 697.6714791793426,666.2654564122224 697.0095233704997,670.9328515103375C696.4556246634364,674.8383450125665 694.9538636959646,680.613655310016 693.6722767761178,683.7668743935587C692.3906898562709,686.9200934771014 690.0853466512855,691.4903591294344 688.5492918761502,693.923020287632C687.0132371010147,696.3556814458294 683.7153621724017,700.5281446048309 681.2206809236766,703.1951606409684C678.7259996749515,705.862176677106 673.7182950471913,710.2416653260226 670.0924484175428,712.9273576385608C666.4666017878942,715.613049951099 660.8,719.0209397474697 657.5,720.5004460749401C654.2,721.9799524024104 649.7,723.8539674757366 647.5,724.6649240156648C645.3,725.4758805555931 640.125,727.0387487720352 636.0,728.1379644966471C630.9160512854419,729.4927175560807 623.7402295708689,730.3196505743902 613.7245362366327,730.7049620081203C605.5980311667807,731.0175949148186 598.7797778624379,731.5493737430045 598.5728622269819,731.8866927374222C598.3659465915259,732.2240117318399 594.9800978363255,745.1 591.0487538820921,760.5C587.1174099278588,775.9 582.795440789778,792.1740018905546 581.4443780196905,796.6644486456768C579.4810306129107,803.189909332733 578.135940318542,805.7009992582925 574.7439501279474,809.1731828520969C572.0099745206105,811.971795087468 568.7210270207147,814.102982815541 565.5,815.1631212966067C560.8096450213638,816.7068605359029 569.5261523727568,816.8146953926736 706.25,816.9043870901867L852.0,817.0L852.0,824.0L852.0,831.0L720.2254404431019,831.0L588.4508808862037,831.0L587.2590202526209,838.4909435307447C586.6034969041503,842.6109624726545 584.8447167387794,848.5734624726545 583.35061988513,851.7409435307447C581.8213856989464,854.9829156333493 578.1749664331275,859.9647780527382 575.0076597759405,863.1393802996711C571.9131285695357,866.2410394644902 566.5985675299983,870.1834488904523 563.1975241325238,871.9002901351423C559.7964807350494,873.6171313798325 554.4411574275643,875.6919102449804 551.2968056714458,876.5109098354712C546.3012535380078,877.8120858707541 511.15537474436576,878.0 272.7899012392515,878.0zM241.66876426496805,763.6645690683654C241.9044785506823,763.4288547826511 241.79639177430386,762.0369415590295 241.42857142857144,760.5714285714287C241.060751082839,759.1059155838277 240.56695002074625,758.0997166459205 240.33123573503195,758.3354309316347C240.0955214493177,758.571145217349 240.20360822569614,759.9630584409706 240.57142857142856,761.4285714285714C240.939248917161,762.8940844161723 241.43304997925375,763.9002833540795 241.66876426496805,763.6645690683654zM238.757596274231,753.5757370591024C238.97759627423096,753.3557370591024 238.36667795082704,750.6666553825063 237.39999999999998,747.6C236.43332204917294,744.5333446174938 235.462403725769,742.2042629408976 235.242403725769,742.4242629408976C235.02240372576904,742.6442629408976 235.63332204917296,745.3333446174937 236.60000000000002,748.4C237.56667795082706,751.4666553825062 238.537596274231,753.7957370591024 238.757596274231,753.5757370591024zM234.72710173871366,740.318694783859C234.88948124771323,739.8315562568603 232.26396417424175,729.9980659876288 228.89261935322145,718.466494185567C225.52127453220115,706.9349223835052 221.0587790662835,691.65 218.9759627622933,684.5C216.89314645830314,677.35 214.06220953968392,667.675 212.68499183202835,663.0C211.3077741243728,658.325 206.7217017072861,642.8 202.49371979405788,628.5C198.26573788082968,614.2 192.78377248477136,595.75 190.31157446948384,587.5C187.83937645419633,579.25 185.46524606312624,571.15 185.03572915599472,569.5C184.60621224886322,567.85 181.30058239627078,556.6 177.68988503912266,544.5C174.0791876819745,532.4 168.70246679782974,514.5181067139432 165.74161640768986,504.76245936431815C162.78076601754998,495.00681201469314 160.00007828509314,486.68181201469315 159.56231033556355,486.26245936431815C159.124542386034,485.84310671394314 159.09676202547232,487.075 159.50057620098207,489.0C159.90439037649182,490.925 161.93961833819603,498.125 164.0233050047692,505.0C166.10699167134243,511.875 171.7173372832564,530.775 176.49073969791144,547.0C181.26414211256647,563.225 186.66592930092355,581.45 188.49471122759383,587.5C190.3234931542641,593.55 194.81189615158988,608.625 198.46894011053996,621.0C202.12598406949004,633.375 207.81028829410187,652.5 211.100727276344,663.5C214.3911662585861,674.5 218.8909613256503,689.35 221.10027186981995,696.5C223.30958241398957,703.65 225.94630554401158,712.2 226.95965660320218,715.5C227.97300766239275,718.8 230.06880754296097,725.9334902692315 231.61698967113153,731.352200598292C233.1651717993021,736.7709109273526 234.56472222971405,740.8058333108578 234.72710173871366,740.318694783859zM608.25,721.9941048886074C612.2375,721.9908625773414 619.775,721.3363818231511 625.0,720.5397032126291C630.225,719.743024602107 637.425,718.1285470297738 641.0,716.9519752741112C644.575,715.7754035184485 651.1,712.957211394828 655.5,710.6893261105104C661.3587276422255,707.669571064004 665.6434701334133,704.4158068222647 671.5082111017061,698.5329491604209C677.2311670289204,692.7923145259459 680.451736992152,688.5588263736356 682.7940422951995,683.6975525715868C684.5967333456823,679.9562064859595 686.5260630895643,674.5562064859595 687.0814417260483,671.6975525715868C687.6368203625324,668.838898657214 687.8047025226003,663.9399878320252 687.454513192866,660.811084071167C687.1043238631316,657.6821803103089 685.5763530264679,652.497118244112 684.0590224447244,649.2887239240629C682.3289088150622,645.6304000167772 679.3618757849407,641.7125239960872 676.101751489382,638.7813919363251C673.1997035711773,636.1722013285917 668.4784254077216,633.2002560028652 665.4141190978581,632.0537520834293C661.7230081919708,630.6727305102756 657.5400026277855,630.0 652.6439886203177,630.0C648.6394462293138,630.0 642.9188269025134,630.71375967461 639.931501227428,631.5861326102445C636.9441755523426,632.4585055458789 631.6932742176399,634.727299975867 628.2628315947552,636.6278980102182C624.8323889718706,638.5284960445695 621.6347250446266,640.8522363699594 621.1569117564353,641.7917653999739C620.679098468244,642.7312944299882 619.7530619935796,645.6922377429756 619.099052923848,648.3716394288349C618.4450438541164,651.051041114694 618.0949665536299,653.4282998869635 618.3211033672114,653.6544367005447C618.547240180793,653.880573514126 620.7050024378174,652.4079705075993 623.1161306050435,650.3819855749298C625.5272587722695,648.3560006422601 629.975,645.560238731411 633.0,644.1691813285981C637.4635517946433,642.1166005792503 640.1161297941733,641.6267962061129 647.076129344442,641.5699930253784C654.9358592552808,641.5058468059101 656.0606853856362,641.7523925454037 660.5415983711516,644.5214305224506C663.2307351963988,646.1832173097985 666.8751201872227,649.4363107620851 668.6402316840938,651.7505270830877C670.6049674802642,654.3264684069167 672.3022228068394,658.1388252618552 673.0168790026785,661.5813057204567C673.6589235310291,664.6740176500072 673.8822190206554,668.8459241977205 673.5130912018479,670.8522091598197C673.1439633830405,672.8584941219189 671.9869895391236,676.4482754506002 670.942038215366,678.8295010013339C669.8970868916083,681.2107265520675 667.6186077761382,684.9563411377329 665.8787512920992,687.1530889694793C664.1388948080602,689.3498368012256 660.3982741871598,692.8589193152723 657.5662610234317,694.9510501118051C654.7342478597036,697.043180908338 650.1857882897245,699.8826048361642 647.4585730901449,701.2608810625302C644.7313578905652,702.6391572888961 638.6769793982537,704.9718744506821 634.004398662786,706.4446969776102C628.1888223976225,708.2777978302902 622.0604013037957,709.3398205578629 614.5774824810317,709.8112780587398L603.6461676364912,710.5L602.3654535261969,716.0C601.6610607655351,719.025 601.0656730473246,721.6125 601.0423697079514,721.75C601.0190663685781,721.8875 604.2625,721.9973471998733 608.25,721.9941048886074zM615.0,700.4835885418695C619.125,700.1000517460508 626.322487355514,698.679440295411 630.9944163455866,697.3266742071145C635.6663453356593,695.9739081188179 641.7800301351314,693.5562091149685 644.5803825666358,691.9540097541158C647.38073499814,690.351810393263 651.6734133235759,687.2791460759404 654.1196677342712,685.1258668267321C656.5659221449663,682.9725875775238 659.8418065995443,678.86931445141 661.3994109666667,676.0074821020348C663.7878650459498,671.6191051217379 664.1609678047572,669.9546028841766 663.7816018762974,665.3799485183823C663.4321174432785,661.1656257040529 662.705280087,659.3018164188394 660.5230016881874,657.0240085891324C658.9781709515522,655.4115527496787 656.2480112561285,653.3965097918928 654.4559801428013,652.5461353496082C652.6639490294742,651.6957609073237 648.9637104344544,651.0 646.233227709424,651.0C642.5662939882551,651.0 639.469341985438,651.9032628929353 634.3843568319571,654.4558641454765C629.6665639661961,656.8241392957251 625.249181026432,660.207253100706 620.3479189998775,665.2058641454765L613.195837999755,672.5L609.7023390637739,686.1877533972298C607.7809146489844,693.7160177657062 606.4993510990396,700.1692266040982 606.8544200638964,700.5282174825452C607.2094890287534,700.8872083609923 610.875,700.8671253376883 615.0,700.4835885418695zM531.5,605.282852787821C523.25,605.4827865449469 513.35,605.5124486751239 509.5,605.3487686326588C505.65,605.1850885901937 496.875,604.5720937101325 490.0,603.9865577880785C483.125,603.4010218660243 472.1,602.0576948950074 465.5,601.0013867413744C458.9,599.9450785877414 449.1516174000427,597.9492655922222 443.8369275556505,596.5662467513321C438.52223771125824,595.1832279104418 431.5472377112582,592.8937283523608 428.3369275556505,591.4784699555963C425.12661740004273,590.0632115588319 420.81053713460625,587.7390257867069 418.74563807690276,586.3136126842072C416.6807390191993,584.8881995817076 414.0932390191993,582.2688978908919 412.99563807690276,580.4929422601722C411.8980371346062,578.7169866294525 411.0,575.734007848042 411.0,573.8641005237041C411.0,571.908303092924 412.0356438774714,568.9401820702128 413.4383182877398,566.8759611378259C414.77939334599665,564.9023917999308 418.08902404031386,561.8679681263476 420.79305316400024,560.1327974187523C423.4970822876866,558.3976267111569 428.4600158765538,555.8602945890796 431.821794472594,554.4942815919137C435.1835730686342,553.1282685947479 442.336442374317,550.8561817503767 447.71705959633357,549.4451997155331C453.09767681835007,548.0342176806897 463.35,546.0105134352036 470.5,544.9480791700084C477.65,543.8856449048133 492.56938963372386,542.4795767792394 503.654199186053,541.8234833353999C519.2512056130009,540.900319648019 527.9566827994605,540.8998099372134 542.154199186053,541.8212291377723C552.2443896337238,542.4760827729166 566.4860378222701,543.891954350812 573.8023062717111,544.9676104219842C581.1185747211523,546.0432664931565 591.2435747211523,548.0273226464961 596.3023062717111,549.3766240960724C601.3610378222701,550.7259255456486 608.0406194228091,552.782963850701 611.1458209395757,553.9478203295221C614.2510224563425,555.112676808343 619.5395872594522,557.8418240216525 622.8981871687084,560.0125919146542C626.2567870779646,562.1833598076558 629.9019855279587,565.431068037632 630.9986281686951,567.2297213146013C632.0952708094314,569.0283745915706 632.9942060063217,571.9848469670978 632.9962619395624,573.7996599268841C632.9983178728031,575.6144728866705 632.3715046923104,578.3144728866704 631.6033437606898,579.7996599268841C630.8351828290693,581.2848469670979 628.3632360957336,583.9812517160876 626.1101287977217,585.7916704801949C623.85702149971,587.6020892443021 618.9208293166147,590.3994202181945 615.1408128352878,592.0079615332892C611.360796353961,593.6165028483839 604.9452430872966,595.833796447586 600.8840277982558,596.935280642627C596.8228125092152,598.0367648376682 588.325,599.8234936703984 582.0,600.9057891598052C575.675,601.988084649212 565.1,603.3338901287215 558.5,603.8964680031594C551.9,604.4590458775973 539.75,605.082919030695 531.5,605.282852787821zM435.03439247360006,583.9634810014061C435.32830833408013,583.9835664506328 436.3401394704683,582.6942008703593 437.2829061100181,581.0982241563539C438.22567274956793,579.5022474423486 441.36019613644794,576.6339768689667 444.248513636418,574.7242895488386C447.1368311363881,572.8146022287104 452.76984861766016,570.0774246141209 456.766330261467,568.6416726275284C460.7628119052738,567.2059206409358 468.4128119052738,565.1535275584723 473.766330261467,564.0807991109428C479.1198486176601,563.0080706634134 488.8715791690986,561.5910609934311 495.4368425979968,560.9318887332047C502.9623568300835,560.1763043945937 515.5272510397226,559.9324931905621 529.4368425979968,560.2721473299929C545.2949627944794,560.6593820051278 554.8748771814268,561.4007713805894 563.5,562.9082943739509C570.1,564.0618607596678 578.6341405700322,565.9467142197088 582.4647568222937,567.0968576184866C586.2953730745552,568.2470010172644 591.9203730745552,570.4613157570848 594.9647568222937,572.0175570403097C598.0091405700322,573.5737983235347 601.85,576.1460666799795 603.5,577.7337089435207C605.15,579.3213512070618 606.9677899859142,581.4437089309483 607.5395333020317,582.4500594410465C608.5375725507869,584.2067521364736 608.7756104329764,584.1928469606354 613.5029976093641,582.1016988396339C616.2111596622794,580.9037499987587 619.2308696763653,579.1960533765327 620.2134643073324,578.3068174569094C621.1960589382995,577.4175815372859 622.0,575.6654116735135 622.0,574.4131066485261C622.0,573.043287490343 620.8474621239674,571.3155090659886 619.1070034277127,570.0761931611057C617.5158553129547,568.943195768012 612.2283553129548,566.4972983157495 607.3570034277127,564.6408654894117C602.4856515424707,562.7844326630737 595.18030394509,560.5123961003125 591.1228976557557,559.5918953499422C587.0654913664212,558.6713945995718 578.0654913664212,557.0013529590303 571.1228976557557,555.8806917042943C561.8129701632589,554.3778995980509 551.6416577312979,553.6979761519791 532.3687195236282,553.2900845902625C515.6423725933721,552.9360889670896 501.42589072569325,553.16688905744 492.8687195236282,553.9313546072538C485.5159237856327,554.5882257745803 473.88041651535667,556.0430105601843 467.0120367007926,557.1642096863736C460.14365688622854,558.2854088125629 450.69365688622855,560.3102138929905 446.0120367007926,561.6637765317682C441.33041651535666,563.0173391705459 434.94830335780483,565.2671056437474 431.82956301734407,566.6632575833269C428.7108226768833,568.0594095229063 425.14906289199854,570.276878601184 423.91454127315563,571.590966646166C422.03321381944824,573.5935479520572 421.8468708572455,574.3685023301421 422.76311894972514,576.379447842447C423.38691015279767,577.7485204012113 426.14132850258875,579.8839375747056 429.1781406939135,581.352820025332C432.1051633122611,582.7685981129462 434.74047661312005,583.9433955521795 435.03439247360006,583.9634810014061zM447.0051677884225,530.0C445.98658150062636,530.0 442.9812243577692,528.3321970954846 440.3265963598511,526.2937713232993C437.671968361933,524.2553455511139 429.875,518.4344811687432 423.0,513.3585171402535C416.125,508.2825531117637 409.4875,503.2164360510653 408.25,502.1004792275903C407.0125,500.98452240411535 406.0,498.9625296436288 406.0,497.60716198206467C406.0,496.2517943205005 406.70714285714286,494.43571428571425 407.57142857142856,493.57142857142856C408.43571428571425,492.70714285714286 410.22005598297653,492.0 411.53663234312245,492.0C412.85320870326836,492.0 415.40856584612555,493.2660974607236 417.2152037716939,494.81354991271905C419.02184169726223,496.3610023647145 425.0,501.00588944198853 430.5,505.1355211955502C436.0,509.2651529491119 442.8159492837073,514.3032100258008 445.646553963794,516.3312035881922C448.4771586438807,518.3591971505838 451.0646586438807,520.7261144340159 451.396553963794,521.5910197735969C451.72844928370733,522.455925113178 452.0,523.9946277186226 452.0,525.0103588968072C452.0,526.0260900749919 451.29285714285714,527.5642857142857 450.42857142857144,528.4285714285714C449.5642857142857,529.2928571428572 448.02375407621867,530.0 447.0051677884225,530.0zM614.4313845994461,530.0C613.0268735981416,530.0 611.4089400378436,529.0275618892953 610.4964848223094,527.6349792111448C609.3270891103007,525.8502557696842 609.1893730120343,524.6321105544253 609.9352183667199,522.6703886079538C610.4788134417153,521.240625210069 614.2032691126104,517.6072101813614 618.2117865242648,514.5961329886036C622.2203039359191,511.58505579584573 630.45,505.28545745399344 636.5,500.5970255622651C643.5677511169705,495.119890068116 648.4115667865206,492.05962681522874 650.0500000000002,492.0363019704705C651.4525000000002,492.0163358867117 653.1400000000002,492.5400000000001 653.8000000000002,493.20000000000016C654.46,493.8600000000002 654.9931092514673,495.5475000000002 654.984687225483,496.95000000000016C654.9762651994986,498.3525000000001 654.6387651994986,499.9859267911107 654.234687225483,500.57983731357933C653.8306092514673,501.173747836048 647.65,506.0951648875877 640.5,511.51631965033425C633.35,516.9374744130808 625.0962492288163,523.3140476219701 622.1583316195918,525.6864823367549C619.2034401795037,528.0726238026948 615.7508673776426,530.0 614.4313845994461,530.0zM484.38827771890436,511.0C483.74658733204774,511.0 482.33903795566164,510.2125 481.2603902158241,509.25C480.18174247598654,508.2875 475.63188969294714,498.13268598177706 471.1496062535143,486.6837466261712C466.66732281408144,475.23480727056545 463.0,464.78268111149987 463.0,463.45679960602547C463.0,461.9785128000121 463.9827927387489,460.4021554249714 465.54096399612087,459.38120240523915C467.5042250968601,458.09482432591096 468.60458013667636,457.9544351043075 470.38075718648787,458.7637155267942C472.1730550840761,459.5803410990795 474.5878037444201,464.546541176513 481.339793190367,481.3021959677809C486.10290693566515,493.1222810385102 490.0,503.939259506984 490.0,505.3399258977226C490.0,506.8379603924456 489.0848465078672,508.52759051989557 487.7774937565946,509.44329603135094C486.5551153227216,510.2994832141079 485.029968105761,511.0 484.38827771890436,511.0zM576.7559050631517,509.8100132229992C573.5642107195338,510.0742873578656 572.840416718413,509.74385889131065 571.8501292762919,507.5704147073932C570.9090390987665,505.504946757498 571.0230734022005,504.2117986467381 572.4506599562654,500.7604014843939C573.419876297757,498.4171806679773 577.0620527078291,488.985090376676 580.5443853119814,479.80020083705773C584.0267179161335,470.61531129743946 587.3533442459111,462.2082873290398 587.9368882670428,461.11792535172515C588.5204322881744,460.0275633744105 589.9203884342743,458.84265539995215 591.0479019250425,458.48479651959553C592.2553741827655,458.10155971245456 594.1052932293311,458.49419607196455 595.548963226856,459.44012498478236C596.9827208174333,460.37955903911904 598.0,462.0075027721127 598.0,463.36249951338436C598.0,464.63651596790606 594.8551862056702,473.9636421269717 591.0115249014892,484.0894465335301C587.1678635973083,494.21525094008854 583.2303635973083,504.075 582.2615249014892,506.0C580.7839515860658,508.9358123746137 579.8964651338167,509.5499730354635 576.7559050631517,509.8100132229992zM529.9324813187067,504.0C529.0401029117413,504.0 527.5652307212737,503.17706669778715 526.6549875621121,502.17125932841594C525.2113146710576,500.57601874004234 525.0,497.26348685610554 525.0,476.227963297065C525.0,452.44228309885983 525.0303106190003,452.09217755334305 527.2225062434054,450.55670396864906C528.4448846772784,449.7005167858921 530.0198846772784,449.0 530.7225062434054,449.0C531.4251278095325,449.0 532.9,449.9 534.0,451.0C535.8886257488035,452.8886257488036 536.0,454.3333333333333 536.0,476.94329603135094C536.0,500.5520016911264 535.9689420709315,500.90834588300385 533.7774937565946,502.44329603135094C532.5551153227216,503.2994832141079 530.824859725672,504.0 529.9324813187067,504.0z"/></svg>