<svg xmlns='http://www.w3.org/2000/svg' height='48px' viewBox='-60 -100 380 700'>
  <title>fullscreen_2_fill</title>
  <defs>
    <filter id="shadow">
      <feDropShadow dx="-20" dy="-20" stdDeviation="0" flood-color="#ffffff"></feDropShadow>
      <feDropShadow dx="20" dy="-20" stdDeviation="0" flood-color="#ffffff"></feDropShadow>
      <feDropShadow dx="20" dy="20" stdDeviation="0" flood-color="#ffffff"></feDropShadow>
      <feDropShadow dx="-20" dy="20" stdDeviation="0" flood-color="#ffffff"></feDropShadow>
    </filter>
  </defs>
  <g filter="url(#shadow)" id="fullscreen_2_fill" fill='black' fill-rule='nonzero'>
    <path d="M145.6 7.7C141 2.8 134.7 0 128 0s-13 2.8-17.6 7.7l-104 112c-6.5 7-8.2 17.2-4.4 25.9S14.5 160 24 160l56 0 0 192-56 0c-9.5 0-18.2 5.7-22 14.4s-2.1 18.9 4.4 25.9l104 112c4.5 4.9 10.9 7.7 17.6 7.7s13-2.8 17.6-7.7l104-112c6.5-7 8.2-17.2 4.4-25.9s-12.5-14.4-22-14.4l-56 0 0-192 56 0c9.5 0 18.2-5.7 22-14.4s2.1-18.9-4.4-25.9l-104-112z"/>
  </g>
</svg>