<svg version="1.1" xmlns="http://www.w3.org/2000/svg" xmlns:xlink="http://www.w3.org/1999/xlink" width="1024" height="1024" viewBox="0 0 1024 1024"><path stroke="none" fill="black" fill-rule="evenodd" d="M147.759452757796,1024.0L36.27401608470758,1024.0L35.62730000247908,1014.75C35.27160615725341,1009.6625 34.51313526331914,996.05 33.94180912706961,984.5C33.37048299082008,972.95 32.90630658811461,937.625 32.91030600994635,906.0C32.914305431778104,874.375 33.40599454036524,837.9426281662871 34.00294847347334,825.0391737028602C34.599902406581435,812.1357192394333 35.30694446844509,801.3597221982212 35.57415305539257,801.0925136112776C35.84136164234005,800.8253050243339 48.75898980862796,813.2758225774012 64.27999342492126,828.7603303958715C79.80099704121457,844.2448382143417 129.39999999999998,893.7208352555539 174.5,938.706990487454C219.60000000000002,983.6931457193543 257.117600121949,1021.2875 257.8724447154422,1022.25C259.17776429002424,1023.9144089410789 253.79222852852484,1024.0 147.759452757796,1024.0zM292.3457079433635,1006.9366136995809C291.8805685745136,1006.9017512343504 290.40903436599706,1006.4372257990019 289.07563192443797,1005.904334954362C287.7422294828789,1005.3714441097221 264.34815012944716,982.7874679449108 237.08878891681204,955.717721254781C209.82942770417688,928.6479745646515 154.12648918266646,873.2343754703043 113.30448109123331,832.5763899340095C61.296253247819564,780.7771308017868 38.90165509385237,757.8287236638355 38.477899896858204,755.899378889482C38.11872141793173,754.2640499866332 38.48886090630826,751.9553273961003 39.389417545542784,750.2138428867773C40.22336381779247,748.6011686234851 42.19416179622935,746.7480026754533 43.76896860873586,746.0956963355956C45.67289328953711,745.3070649110708 47.449219325058294,745.2202945771007 49.07055049636925,745.8367235897365C50.411613722061105,746.3465949193718 101.45685663452468,796.4322788086711 162.5044236351772,857.138243343735C223.55199063582975,917.844207878799 279.2055223986879,973.0769625350346 286.1789386637509,979.8776981353698C293.1523549288139,986.678433735705 299.39444908341574,993.5380707644748 300.0502590073105,995.1213359770804C300.9618173506125,997.3220324923744 300.9685714755001,998.6616616077199 300.07893716091166,1000.8094288355519C299.4389002214974,1002.3546146951054 297.6273746414092,1004.3796146951055 296.0533247607155,1005.3094288355519C294.4792748800218,1006.2392429759983 292.8108473122134,1006.9714761648114 292.3457079433635,1006.9366136995809zM400.70294697887414,937.9645645842706C400.5913261404934,937.9450751056194 399.5072231420862,937.3772979196107 398.29382920463604,936.7028375042512C397.0804352671859,936.0283770888918 391.00543526718593,930.5148504085042 384.79382920463604,924.4505559922789C378.5822231420862,918.3862615760535 363.6,904.0209071628965 351.5,892.5275461852634C339.4,881.0341852076303 323.875,866.1623433728597 317.0,859.479008774662C310.125,852.7956741764643 294.375,837.7208578762364 282.0,825.9794169963777C269.625,814.2379761165189 254.10901022321008,799.4267905687553 247.52002271824463,793.0656713346809C240.9310352132792,786.7045521006064 229.00603521327918,775.1894457822577 221.02002271824463,767.4765461827949C213.0340102232101,759.7636465833322 201.09923965160277,748.2886465833321 194.4983103368951,741.9765461827949C187.89738102218737,735.6644457822578 171.47238102218736,719.9545494019038 157.9983103368951,707.0656653375639C144.52423965160278,694.176781273224 127.73983755463868,678.0108600815282 120.69963901030818,671.1413960226843C109.2198251929444,659.9399834596668 107.93026471356467,658.3365066579337 108.19963901030818,655.5985344491775C108.40042532384778,653.5577037054279 109.29384224737814,652.1520650810022 110.8945771384403,651.3585105324922C112.21159456458246,650.7056071849001 114.11291878375027,650.4761438610923 115.11974206992431,650.8485920351416C116.12656535609835,651.2210402091908 123.37400564380022,657.8314067014157 131.22516493148402,665.5382953511969C139.07632421916782,673.245184000978 151.575,685.3943007537378 159.0,692.5363325795516C166.425,699.6783644053655 181.7222619512718,714.2919298673448 192.99391544727064,725.0109224950612C204.2655689432695,735.7299151227776 215.0655689432695,746.0412266995726 216.99391544727064,747.9249482212723C218.9222619512718,749.808669742972 228.6,759.0066202825608 238.5,768.3648383092471C248.4,777.7230563359335 260.775,789.4947142178623 266.0,794.5240780468669C271.225,799.5534418758713 286.075,813.7326068928875 299.0,826.0333336402364C311.925,838.3340603875853 333.07854010649714,858.5461758060839 346.007866903327,870.9491456813444C358.9371937001569,883.352115556605 377.7155201489054,901.329140586454 387.7374812338793,910.89809019212C397.75944231885313,920.467039797786 406.22372666410666,929.1295397977859 406.54700200110926,930.14809019212C406.8702773381119,931.166640586454 406.87080103963933,932.831709376144 406.5481657822812,933.8482430580978C406.2255305249231,934.8647767400514 404.8240322136658,936.2147767400514 403.43372509059833,936.8482430580978C402.04341796753084,937.481709376144 400.81456781725495,937.9840540629218 400.70294697887414,937.9645645842706zM1001.3219424030228,926.9140472563131C999.2198740813602,926.8667732472852 996.375,926.4846448481763 995.0,926.064873036071C993.625,925.6451012239659 990.7,924.3574317781653 988.5,923.2033853787364C986.3,922.0493389793074 977.975,916.6221304574699 970.0,911.142921996875C962.025,905.6637135362802 954.15,900.2098788375013 952.5,899.023289332922C950.85,897.8366998283427 940.95,890.9847575858387 930.5,883.7967510162464C920.05,876.608744446654 901.6,863.8838370178104 889.5,855.5191789521493C877.4,847.1545208864884 859.4,834.6100442183283 849.5,827.642564134016C839.6,820.6750840497036 826.325,811.3587599188943 820.0,806.9396216211062C813.675,802.5204833233182 799.05,792.3307797218524 787.5,784.2958358400712C775.95,776.2608919582899 763.8,767.8099707736897 760.5,765.516010985404C757.2,763.2220511971184 744.9711760274442,754.7425106301947 733.3248356165427,746.6725875033515C721.6784952056411,738.6026643765082 711.6963196573918,732.0 711.1422232870998,732.0C710.5881269168077,732.0 709.8560973163424,732.8780367059713 709.5154908416212,733.9511926799364C709.1748843669,735.0243486539015 706.7014389822018,739.2644317827908 704.0189455422917,743.3735996330238C701.3364521023816,747.4827674832567 695.9486790681958,754.2062185068836 692.0461165774343,758.3146019077502C688.1435540866728,762.4229853086168 681.6991750196204,768.025855709448 677.7252742062067,770.7654250207086C673.751373392793,773.5049943319691 667.35,777.3150909247715 663.5,779.2323063380472C659.65,781.1495217513229 652.9,783.8978928650666 648.5,785.3397977019221C644.1,786.7817025387775 638.7093469305956,788.3258188978626 636.5207709568792,788.7711673887779C632.8516500897913,789.5177886899195 632.4910615609613,789.889466786941 631.8937908982005,793.5404459588574C631.5375278396435,795.7182006814858 630.9495158938361,799.5614274086006 630.587097685295,802.0809497968903L629.9281554879476,806.6618995937806L633.7140777439738,807.8107038630878C635.7963349847882,808.4425462112067 640.6126998353793,811.331118802606 644.4171107452875,814.2297540661975C649.2020901061294,817.8754985032064 652.2588051144137,821.1565316146142 654.3337774119541,824.8741587947857C656.6795932668325,829.0770432343082 657.3315203235929,831.4744450231042 657.325014699704,835.8741587947857C657.3194393574257,839.6447287849862 656.623015572645,842.8191067058873 655.2132104562033,845.5C654.056293370774,847.7 652.0725367559072,850.673164752784 650.804862423166,852.1070327839645C649.5371880904247,853.5409008151452 646.4322468161779,856.350456481659 643.9049929248397,858.350489820662C641.3777390335016,860.3505231596649 635.9329133039536,863.5472176460759 631.8053801925109,865.4542553460195C627.6778470810682,867.3612930459632 620.5206002648903,870.0164738625624 615.9003872676711,871.3546571606846C611.280174270452,872.6928404588067 603.675,874.4883968826938 599.0,875.3447825471003C594.325,876.2011682115069 586.1302361881441,877.3739317283938 580.7894137514312,877.950923695738C575.4485913147183,878.5279156630821 565.3235913147183,878.9922019297678 558.2894137514312,878.9826709550396C551.2552361881441,878.9731399803112 541.2891822812609,878.5218142648104 536.1426272916908,877.9797249205931C530.9960723021208,877.4376355763757 522.2210723021208,876.0788421930222 516.6426272916908,874.9601840686962C511.06418228126086,873.8415259443702 503.575,871.9885069169421 500.0,870.8423640077448C496.425,869.6962210985474 490.3938377336195,867.4164046281788 486.5974171858211,865.7761051847035C482.8009966380227,864.1358057412282 477.40099663802266,861.4175552074591 474.5974171858211,859.7355484429947C471.7938377336195,858.0535416785302 468.21756567365117,855.5124496024845 466.6501459414471,854.0886771628932C465.082726209243,852.664904723302 462.4178534449304,849.5064636716929 460.72820646519693,847.0699192704287C458.1436106890197,843.3428197972778 457.6788243950462,841.7769344324265 457.79919408329386,837.201948373352C457.8778842529806,834.2111087812239 455.9153169658437,819.1046451095309 453.4379334452118,803.6320291029232C450.9605499245799,788.1594130963155 448.18543383854774,770.6358295809509 447.2710088095848,764.6907324021131C445.6086494354798,753.882970461897 445.60806206385297,753.8815572587316 443.05420892391703,754.545204981089C441.64939401576265,754.9102620783635 435.55,756.0933091703896 429.5,757.1741985189246C421.287068766058,758.6415158562833 411.95691933686663,759.2788048274766 392.6757762955143,759.6894499431091C376.36907133916884,760.0367461966571 362.17989469647466,759.8086714987535 354.1757762955143,759.0706067155982C347.20409933298146,758.4277440057009 335.875,756.7765378792237 329.0,755.4012597678712C322.125,754.0259816565188 311.88249789871736,751.3589009992611 306.2388842193719,749.4744138628542C300.5952705400265,747.5899267264474 293.3952705400265,744.8322436622174 290.2388842193719,743.3462292756765C287.08249789871735,741.8602148891355 282.25,739.3006377658432 279.5,737.6582801128047C276.75,736.0159224597663 272.025,732.5677198554695 269.0,729.9956076588117C264.30687396469926,726.0051128767128 262.69312603530074,725.2349241257075 258.0,724.7456698545753C254.975,724.4303162589032 250.25,723.4174025815996 247.5,722.4947505716787C244.75,721.5720985617576 240.58416358306826,719.7124066353091 238.2425857401517,718.3621018462375C235.90100789723513,717.011797057166 233.245722544718,714.7784605089548 232.34195162344696,713.3991317391017C231.4381807021759,712.0198029692485 230.73458339250246,709.6303133371578 230.77840204639483,708.0891547788999C230.8580154892414,705.2890473384305 230.8522373833098,705.2866156088467 222.67903616309957,704.6805174395674C218.18056627339482,704.3469254611923 211.13731566965083,703.1279985639353 207.02736815477965,701.9717910012184C202.91742063990847,700.8155834385014 195.94242063990845,697.99730409017 191.52736815477965,695.7089480049261C185.36334129245827,692.5140848798532 181.28922030656304,689.3375208837723 173.97584971139855,682.024150288605C166.60346085506993,674.6517614322736 163.5251078206029,670.6925850667451 160.35040940844266,664.5C158.0946999005477,660.1 155.27735376783562,653.6403020188832 154.089640224638,650.1451155975183C152.9019266814404,646.6499291761534 151.04587481777054,638.6177115049329 149.9650805275939,632.2957429948062C148.58294249319775,624.2111026432433 148.0011929263323,616.1584853879426 148.00402131656858,605.150627397288C148.00640352533412,595.8792703340021 148.63451107952625,585.6277547133018 149.5449933684484,580.0C150.39031627286957,574.775 151.9709349433672,567.6160492810097 153.0574793028876,564.0912206244661C154.144023662408,560.5663919679224 156.4206008728572,554.9413919679224 158.1165397705525,551.5912206244661C159.8124786682478,548.2410492810097 162.73031564443403,543.3610891796284 164.60062193985522,540.7468648436186C166.4709282352764,538.1326405076088 169.78162357595806,534.3852048316863 171.95772269692554,532.4192300082354C174.13382181789302,530.4532551847844 177.81114469229934,527.4706388752126 180.12955130671736,525.7911937647425C182.44795792113538,524.1117486542723 187.52974794665863,521.2359003846861 191.42241803010234,519.4004198323287C195.31508811354604,517.5649392799712 201.2,515.3410412695877 204.5,514.4584242536985C207.8,513.5758072378094 215.225,512.6037774782998 221.0,512.2983581214548C226.92190623544658,511.9851694125846 235.36488066572213,512.2579409599596 240.36422364353672,512.9239681230702C245.23954664748192,513.5734729808034 249.34849198877384,513.9687866858218 249.49521329085212,513.8024430231108C249.6419345929304,513.6360993603998 250.17731443377994,504.5 250.6849462705178,493.5C251.55874340472803,474.5654734776289 251.75938882367976,473.1803579567113 254.45126093089254,467.5L257.2946086153803,461.5L258.07915498623464,465.65625436163947C258.51065549020456,467.94219426054116 259.747692232568,471.54527398625027 260.8281255248201,473.6630981965485C261.9085588170722,475.78092240684674 265.24925104888655,479.83713348391325 268.2518860399631,482.6769005900296C271.25452103103964,485.51666769614593 276.2099027697657,489.438500033799 279.2638454593543,491.392083562592C282.3177881489429,493.345667091385 287.44526311178356,496.12624127961334 290.6582342656668,497.57113731421055C293.87120541955005,499.0160333488078 298.975,501.08279812757837 302.0,502.1639479337008C305.025,503.24509773982317 311.775,505.2299633824364 317.0,506.57476047284126C322.225,507.9195575632461 332.8,509.95458669956224 340.5,511.0970474424326C350.8442436043462,512.6318386414786 359.8530718650644,513.2012301253512 375.0,513.2775758779967C386.63013882247486,513.3361957970893 399.6104234725116,512.8290215489442 405.0,512.105396079589C410.225,511.403867293775 420.5907433007511,509.55374724889094 428.0349851127802,507.99401820206884C435.47922692480927,506.43428915524674 445.8292269248093,503.7143131056595 451.0349851127802,501.9496269807638C456.2407433007511,500.18494085586815 464.28327005499426,496.88685773410265 468.90726678887614,494.6205533768404C474.5966549946363,491.83208140704164 479.65263007194795,488.3192307177905 484.5470130295396,483.75418387914095C488.98821233027957,479.6118266089138 492.3978237653453,475.46300574826915 493.38164922090823,473.0041838791409C494.262835427678,470.80188274561334 495.1951047864859,468.99999999999994 495.45335890714813,469.0C495.71161302781036,469.0 496.4720188225816,470.9125 497.1431495621954,473.25C498.02513427600445,476.3218891966043 498.28898223063123,487.307474016719 498.09497328194357,512.8801734530521L497.82655929330303,548.2603469061041L500.1632796466515,547.6817931534418C501.4484758409932,547.3635885894776 506.5282743890367,546.6060743653914 511.451720864526,545.9984282110281C516.3751673400153,545.3907820566649 530.1001673400153,544.8938152716375 541.951720864526,544.8940575776342C555.3193870635362,544.8943308806804 568.7600281700953,545.5043076464906 577.3552644098895,546.5007769907045C584.9756598353289,547.3842303618966 596.2289091916816,549.3744640049475 602.3624852017847,550.9235184197064C608.4960612118879,552.4725728344654 617.0168801394344,555.1980498292228 621.2976383741104,556.9801339636117C625.5783966087864,558.7622180980006 632.3251472524337,562.365157243686 636.2904175822152,564.986665398468C640.2556879119968,567.6081735532499 645.6161981338479,571.9461089928237 648.202662519662,574.626521930854C650.789126905476,577.3069348688842 654.1267401274735,582.2 655.6195807907675,585.5C657.7986354174468,590.3169107694154 658.4224477756096,593.4225199997001 658.7832256386943,601.25L659.2326147351775,611.0L663.8663073675888,611.0173636237744C666.414838315415,611.0269136168503 671.5622450923562,611.6835880654806 675.3049890941248,612.4766401762864C679.0477330958935,613.2696922870922 685.2402326963771,615.60927502011 689.0660993174218,617.675712916326C692.9001815670127,619.7465882610604 698.7189305843392,624.1408503353787 702.0306793710192,627.466436363814C705.3353317794531,630.7848963637163 709.380887800174,635.525 711.0208038615102,638.0C712.6607199228464,640.475 715.3171577698749,645.65 716.9239990771292,649.5C718.5308403843835,653.35 720.6091451718856,660.55 721.5424541604673,665.5C722.7933553924222,672.1344170836563 723.0714588346549,676.9970041894738 722.6005151410407,684.0C722.2491396917743,689.225 721.7270920823122,695.975 721.440409342236,699.0L720.9191679966428,704.5L727.7095839983215,709.0752271847358C731.4443127992446,711.5916021363405 739.675,717.2278463792679 746.0,721.6002143912411C752.325,725.9725824032143 759.525,731.0318479481887 762.0,732.8430267134063C764.475,734.6542054786239 770.9194634052544,739.257753652889 776.3210297894543,743.073133767329C781.7225961736542,746.8885138817687 791.3975961736542,753.6238041424865 797.8210297894543,758.0404454578129C804.2444634052545,762.4570867731394 814.4805300168475,769.5422943559468 820.5678444818833,773.785351197385C826.6551589469191,778.0284080388233 836.1051589469191,784.6239386984811 841.5678444818833,788.4420859966247C847.0305300168475,792.2602332947681 859.8263679928689,801.289847745752 870.0030399841531,808.5078958876998C880.1797119754374,815.7259440296476 894.3547119754373,825.6287412779778 901.5030399841531,830.5141119951004C908.6513679928689,835.3994827122228 920.575,843.7140435306276 928.0,848.9909138137778C935.425,854.2677840969278 947.976119549157,863.0660481501164 955.8913767759046,868.5426117097526C963.8066340026522,874.0191752693887 974.6066340026522,881.5386474619079 979.8913767759046,885.252549915351C985.1761195491571,888.966452368794 991.75,893.3497295410583 994.5,894.9931658537162C997.25,896.636602166374 1000.3044645414102,897.9854547044661 1001.2876989809115,897.9906159383652C1002.2709334204128,897.9957771722644 1007.2209334204128,896.3833366833421 1012.2876989809115,894.4074148518714C1017.3544645414102,892.4314930204006 1022.0854511119934,890.5745408904857 1022.8010024710965,890.2808545631715C1023.8058296206566,889.8684397289522 1024.0334812417075,891.1913163328103 1023.8010024710965,896.0918239634832L1023.5,902.4367685043659L1015.5,905.8459556124221C1010.7733218185664,907.8602219024315 1005.6534803925745,909.3052362626968 1002.987105247148,909.3775713602392C999.0092228273495,909.4854858498196 997.527323840243,908.8254832690878 990.487105247148,903.8103685138049C986.0941973612166,900.6810711963976 969.45,888.9667146441643 953.5,877.7784650643974C937.55,866.5902154846306 923.375,856.6729158244934 922.0,855.7400213752036C920.625,854.8071269259137 915.8516910921375,851.4464834781471 911.3926468714167,848.271924824611C906.9336026506959,845.097366171075 897.7971844239311,838.675 891.089495256384,834.0C884.3818060888368,829.325 875.4301149966992,823.0599592591421 871.1968483849673,820.0776872425381C866.9635817732353,817.0954152259341 853.825,807.893760743471 842.0,799.6295661703981C830.175,791.3653715973252 815.6100624667044,781.205412338183 809.633472148232,777.05187892786C803.6568818297596,772.898345517537 797.8068818297596,768.8262188240586 796.633472148232,768.0027084979081C795.4600624667045,767.1791981717574 783.475,758.8212823316597 770.0,749.4295621865797C756.525,740.0378420414997 741.45,729.5248247493051 736.5,726.0673015372583C731.55,722.6097783252114 726.6,718.9864276011261 725.5,718.0154110392909C724.4,717.0443944774557 722.4302717162803,715.6972326062993 721.1228260361785,715.0217179922765C719.2001699697166,714.0283442021447 718.5816947303281,714.0522513576658 717.8881388106955,715.1467548015722C717.4165065167817,715.8910396607075 717.0237348005014,717.0051520310551 717.015312774517,717.6225600690113C717.0068907485327,718.2399681069677 722.8880948155315,722.9649681069677 730.0846551456257,728.1225600690113C737.2812154757199,733.2801520310551 745.9437154757198,739.4414155957837 749.3346551456257,741.8142568795195C752.7255948155316,744.1870981632552 758.425,748.1159529425871 762.0,750.5450452780349C765.575,752.9741376134828 770.3,756.2468230819367 772.5,757.817679652377C774.7,759.3885362228174 783.7,765.7112841462441 792.5,771.8682305933253C801.3,778.0251770404063 813.8101073603003,786.7610759761687 820.3002385784453,791.2813393394637C826.7903697965902,795.8016027027586 836.0153697965901,802.2264657252449 840.8002385784453,805.5588127227666C845.5851073603004,808.8911597202881 860.7129123741335,819.466159720288 874.4175830536299,829.0588127227666C888.1222537331262,838.651465725245 903.8914864318155,849.65 909.4603223840504,853.5C915.0291583362853,857.35 926.9144071234277,865.675 935.8719863554782,872.0C944.8295655875286,878.325 956.0617857578137,886.2 960.8324756227785,889.5C965.6031654877434,892.8 974.1586663958218,898.8119709628279 979.8446998629529,902.8599354729508C985.5307333300839,906.9078999830739 992.0542804611094,911.2899795704101 994.3414712652319,912.5978901114759C997.0573094709216,914.1509190107912 1000.0611548686858,914.968146759645 1003.0,914.9535339643744C1005.5843269739225,914.9406839367971 1010.6927883767958,913.6702606746016 1015.0,911.9692539739704C1019.125,910.3402064012197 1022.8375,909.0056957045875 1023.25,909.003674648121C1023.6625,909.0016535916544 1024.0,911.6431713201783 1024.0,914.8737140448409L1024.0,920.7474280896816L1014.5719424030228,923.8737140448409C1009.3865107246853,925.5931713201784 1003.4240107246853,926.9613212653409 1001.3219424030228,926.9140472563131zM547.5,844.530776857199C564.7491337819073,844.2706789207531 571.4482188481074,843.77260809835 578.5216841920611,842.2243431270432C583.4836104976947,841.1382592465609 591.1336104976947,838.8122803247916 595.5216841920611,837.055501078667C599.9097578864275,835.2987218325424 605.7563137574446,832.1581453280446 608.5140305720989,830.076442179783C611.2717473867533,827.9947390315215 614.2749766418451,824.7634337076905 615.1878733611918,822.895763682381C616.1007700805385,821.0280936570715 618.0577925229021,810.95 619.5368121219999,800.5C621.0158317210976,790.05 622.3545923339,781.0192931424874 622.5118357060051,780.431762538861C622.66907907811,779.8442319352345 625.430742878302,778.8018372939337 628.648866373098,778.1153300026368C631.8669898678941,777.42882271134 637.402683918148,775.9303295728 640.9504087069956,774.7853452503257C644.4981334958431,773.6403609278512 650.7297875126596,771.1864951126583 654.7985287443655,769.3323101054525C658.8672699760713,767.4781250982467 664.2895860579233,764.5458767636155 666.8481200373699,762.816202695161C669.4066540168164,761.0865286267065 674.2794479140407,757.2612542750427 677.6765509200903,754.315593024797C681.07365392614,751.3699317745511 686.2878496492076,745.7063801052349 689.2636525269072,741.7299226485386C692.2394554046069,737.7534651918425 696.2977980855702,731.575 698.282191817937,728.0C700.2665855503037,724.425 703.4737392149351,716.7662732373589 705.4091999615623,710.9806071941308C707.4328233750886,704.9313967989718 709.3687853880415,696.5720894097931 709.9649748719328,691.3091866719859C710.6912530273854,684.8979174429589 710.6807306082304,679.8127336204509 709.9298380759701,674.3285794778551C709.3402973841143,670.0228607650348 707.8331564228209,663.5290809055332 706.5806359397627,659.8979575678514C705.3281154567045,656.2668342301697 702.6589242709862,650.8185191897347 700.6490999714997,647.7905908113291C698.6392756720134,644.7626624329234 694.5222169676434,639.9467304851455 691.5000806284554,637.088519816267C688.4779442892675,634.2303091473884 683.64159764547,630.8101686411561 680.7526436422387,629.4882075801952C677.8636896390074,628.1662465192344 672.6271089416003,626.3491069894255 669.1157976480008,625.4501197361756C664.3396910196876,624.2273118960268 660.7503054082887,623.9909816809223 654.8657976480008,624.5118796221732L647.0,625.2081617868071L647.0,620.4836188076183L647.0,615.7590758284297L642.75,619.2379726026693C640.4125,621.1513658285012 636.2298515655611,624.1123477757092 633.4552257012472,625.8179324853537C630.6805998369331,627.5235171949982 624.3083771394317,630.5032181882567 619.294730817911,632.4394902481504C614.2810844963903,634.3757623080439 605.976232930829,637.05129548576 600.839505116664,638.3851195319638C595.7027773024988,639.7189435781677 586.55,641.5045003672559 580.5,642.3530235077153C574.45,643.2015466481747 564.55,644.1786611595265 558.5,644.524389088497C552.45,644.8701170174675 540.8164279260828,644.6465234183132 532.6476176135174,644.0275144237097C524.4788073009519,643.4085054291062 511.6538073009519,641.7735811408829 504.14761761351735,640.3943493387691C496.6414279260828,639.0151175366552 485.775,636.3160422590314 480.0,634.3964042773828C474.225,632.476766295734 465.4860349910677,628.8712778830534 460.58007775792817,626.384207804759C455.67412052478863,623.8971377264646 449.59912052478865,620.4574019484421 447.08007775792817,618.7403505202647C444.5610349910677,617.0232990920871 441.0375,614.0413523626698 439.25,612.1138022326709L436.0,608.6091656326726L436.0,614.4352540144292C436.0,617.6396026243954 436.6635227517098,624.5900403570441 437.47449500379963,629.880671198093C438.28546725588944,635.1713020391418 440.3028699010712,648.5 441.9576119930924,659.5C443.6123540851137,670.5 447.6637200461609,696.6 450.96064746208634,717.5C454.2575748780118,738.4 457.9326737875921,761.8 459.1275339278204,769.5C460.3223940680487,777.2 462.7405988007567,792.187508287846 464.501322222727,802.8055739729909L467.7026375354004,822.1111479459819L471.50966062184057,826.0098933745298C473.6035233193826,828.1542033602311 478.9579298739175,831.7278347997384 483.4083418541403,833.9512965734348C487.85875383436314,836.174758347131 496.0,839.119846071876 501.5,840.4959359617569C507.0,841.8720258516379 514.65,843.4174514644241 518.5,843.9302151012819C522.35,844.4429787381398 535.4,844.7132315283026 547.5,844.530776857199zM572.1656169875516,836.0C570.780395139057,836.0 570.4662087090264,835.3021153409157 570.7024727783937,832.75C570.8679519858665,830.9625 572.1291014079952,816.9 573.5050270497907,801.5C574.8809526915862,786.1 578.0157102321126,751.0 580.4711549176271,723.5C582.9265996031417,696.0 585.4699184638463,667.7967235198284 586.1229746080821,660.8260522662854C587.1926951710423,649.407936927555 587.5135936687041,648.0989549664886 589.3615045293011,647.6157154210271C590.4896398417358,647.3207014096781 591.6160313183841,647.2826979850504 591.8645966996305,647.5312633662986C592.113162080877,647.7798287475468 591.7857159048979,654.1744803279131 591.136938530788,661.7416002115568C590.4881611566781,669.3087200952006 588.8326570241371,689.0 587.4580404584749,705.5C586.0834238928126,722.0 583.5992058764474,749.9 581.9375559776634,767.5C580.2759060788794,785.1 578.5069764783293,803.775 578.0066013097742,809.0C577.5062261412191,814.225 576.7881777322532,821.65 576.4109381787387,825.5C576.0336986252241,829.35 575.3210795717961,833.2875 574.8273402822317,834.25C574.3336009926675,835.2125 573.1358255100614,836.0 572.1656169875516,836.0zM581.8975559626228,833.0C580.6167814051798,833.0 580.5883015778528,831.3641582516057 581.6755798461822,820.25C582.3616002072436,813.2375 583.3872273801813,802.325 583.9547513415995,796.0C584.5222753030176,789.675 586.3278895264175,770.1 587.9672273935994,752.5C589.6065652607812,734.9 592.083620998026,707.675 593.471795698588,692.0C594.8599703991499,676.325 596.3342060171975,660.1727491079569 596.7478748498049,656.1061091287929C597.2555846985455,651.1149833635517 597.9874493986629,648.4687528555978 599.0,647.9630161783878C599.825,647.5509550348288 605.225,645.672270897745 611.0,643.7881625404236C616.775,641.9040541831023 622.3244169659408,639.9936346798659 623.3320377020907,639.5427858665648C624.9965511857923,638.7980176200142 625.1108418741153,639.1243488597298 624.5819157914734,643.111530375736C624.2617280044841,645.5251886690812 622.8894552357435,655.375 621.5324207498277,665.0C620.1753862639117,674.625 617.4583739682784,693.075 615.49461564842,706.0C613.5308573285615,718.925 609.9067881469923,743.45 607.4411285782661,760.5C604.9754690095399,777.55 601.5788394346264,799.6 599.893062856236,809.5C598.2072862778457,819.4 596.5292112622147,827.7850920606494 596.164007265945,828.1335379125543C595.7988032696753,828.4819837644592 592.7700394109507,829.7194837644591 589.4334209132239,830.8835379125543C586.0968024154972,832.0475920606494 582.7056631877267,833.0 581.8975559626228,833.0zM483.7985232384099,823.6864666954853L483.5,826.001950682974L480.22960791308316,824.0032726070391C478.4308922652789,822.9039996652749 476.54024587803747,820.9910607616058 476.02817149699104,819.7522972655521C475.5160971159446,818.5135337694984 473.01859026895687,802.2 470.47815628146265,783.5C467.9377222939684,764.8 465.00366380821623,744.1 463.9580263131244,737.5C462.9123888180326,730.9 460.92668951988503,717.85 459.5453612061298,708.5C458.1640328923746,699.15 455.2536786093884,679.575 453.07790724393817,665.0C450.90213587848797,650.425 448.8184237639577,636.3625 448.44743587831545,633.75C448.07644799267314,631.1375 448.03729306264137,629.0 448.36042492268933,629.0C448.6835567827373,629.0 452.44715148151545,630.389106462797 456.7239686977519,632.08690325066C461.00078591398835,633.7847000385229 464.60368425491157,635.2758842934351 464.730409455359,635.4006460393534C464.8571346558065,635.5254077852718 465.87132819531246,644.3738013224748 466.9841728764834,655.0637427886934C468.0970175576543,665.7536842549121 470.5968188103616,690.025 472.53928677138845,709.0C474.48175473241537,727.975 476.499943597591,747.55 477.02415091622333,752.5C477.5483582348557,757.45 479.35420818452127,774.9709711092992 481.03715080436916,791.4354913539983C482.72009342421705,807.9000115986973 483.9627110195354,822.4129505023665 483.7985232384099,823.6864666954853zM1023.7677946249979,800.3936090541017L1023.5,825.0849621915407L1000.0,808.7194848697794C987.075,799.7184723428107 967.5,785.9676468018006 956.5,778.162094778646C945.5,770.3565427554912 932.675,761.2495052771146 928.0,757.924233715587C923.325,754.5989621540593 912.3,746.754417688697 903.5,740.4919126814485C894.7,734.2294076742 883.9,726.5704625081602 879.5,723.4720345346932C875.1,720.3736065612261 866.55,714.3463796746564 860.5,710.0781970089827C854.45,705.8100143433089 843.875,698.3574152676578 837.0,693.5168657297579C830.125,688.676316191858 819.4992332413603,681.1567548550979 813.3871849808007,676.8067294258465C807.2751367202411,672.4567039965951 801.7626367202412,667.7744601588521 801.1371849808007,666.4017431197508C800.5117332413603,665.0290260806494 800.0,662.3888721779628 800.0,660.5347344471138C800.0,658.6805967162649 800.280500632569,656.4326020052271 800.6233347390421,655.5391906448076C800.9661688455152,654.6457792843881 802.959574795377,653.0409472659271 805.0531257387349,651.9728972704498C807.1466766820929,650.9048472749726 816.2036760495239,647.2601729548529 825.1797909996928,643.8736210035173C834.1559059498618,640.4870690521817 842.6489341206699,637.7050967099349 844.0531869348221,637.6914602429688C845.6333282694561,637.6761157516531 850.9688711616891,640.6676428647739 858.0531869348221,645.5409669247831C864.3489341206699,649.8718320667471 874.3271640037112,656.9218320667471 880.2270311193583,661.2076335914497C886.1268982350055,665.4934351161523 891.4259543008096,669.0 892.0027112655899,669.0C892.6132571847397,669.0 892.3763772775458,667.6947267797236 891.4357125847189,665.8756818472277C890.0905140975764,663.2743548176308 890.0443669825052,662.5509837552929 891.1600324384874,661.5543057452195C891.8970145973193,660.8959238731397 894.3,659.6321952973294 896.5,658.7460200211967C898.7,657.859844745064 904.1979831361597,655.7544639909677 908.717740302577,654.067396123205C913.2374974689943,652.3803282554422 917.9022077977631,651.0 919.0837632553964,651.0C920.2653187130297,651.0 923.3776252481014,652.575 926.0,654.5C928.6223747518986,656.425 931.056720488934,658.0 931.4096571934122,658.0C931.7625938978903,658.0 931.3885975850342,656.7183582485987 930.5785542759544,655.1519072191084C929.7685109668746,653.585456189618 926.2694549010703,650.4816141462667 922.8028741297228,648.2544804561056C919.3362933583753,646.0273467659446 915.4875,643.9036640655951 914.25,643.5351855664402C913.0125,643.1667070672853 912.0,643.1393651597559 912.0,643.4744257719306C912.0,643.8094863841052 912.8952039467629,645.0445155279828 913.9893421039175,646.2189349805474L915.9786842078349,648.3542430761195L913.2393421039175,649.629241638514C911.7327039467629,650.330490847831 907.8,652.0887641572778 904.5,653.5365156595068C901.2,654.9842671617358 895.4341281530399,657.2869895614439 891.6869514511998,658.6536765477468L884.8739029023995,661.1385619773887L873.6293433743299,653.6502117544635C867.4448356338914,649.5316191318547 861.0110092772896,644.8785639385671 859.3319514707702,643.3100891027134C856.8996018551367,641.0379343565777 856.3698746055817,639.8399598579101 856.7256445719374,637.4159441382515C856.9712335840989,635.7426392436512 858.0783792202207,633.8076346081867 859.1859682077636,633.1159338372195C860.2935571953066,632.4242330662521 865.2434201886475,630.3151794556638 870.1856637485213,628.4291480359121C875.127907308395,626.5431166161604 880.2648827636149,625.0 881.6011647601209,625.0C882.937446756627,625.0 886.5056299087765,626.6432155935772 889.5304606537866,628.6515902079495C892.5552913987967,630.6599648223217 895.284324784266,632.0490085490715 895.5949792881629,631.7383540451713C895.9056337920598,631.427699541271 895.4817851654572,630.1219839476937 894.6530934512682,628.8367638372217C893.7746702285391,627.474415002273 893.3705354247937,625.3660029701666 893.6839298068746,623.780539354741C893.979581516647,622.2848359998485 894.7439187482314,620.6274917061445 895.3824569881731,620.0975520353987C896.0209952281147,619.567612364653 901.0336625948428,617.5290043655056 906.5217178031244,615.5673120372935C912.009773011406,613.6056197090813 917.4,612.0010947732234 918.5,612.0017010687202C919.6,612.0023073642171 926.3841866432967,615.939672653731 933.5759703184373,620.7514017120845C940.7677539935778,625.5631307704381 948.4177539935778,630.9881638428769 950.5759703184373,632.8070307619489L954.5,636.1140615238977L951.5,638.5520636170088C949.85,639.8929647682199 948.7809230645458,640.992300925343 949.1242734767686,640.99503285506C949.4676238889913,640.997764784777 951.5467761792642,640.3655477764632 953.7446118995972,639.5901061699183C957.5941117813803,638.2319235063512 957.9013112170289,638.2867825036424 962.1203384228287,641.085824928904C964.5291522902729,642.6839118528912 966.8490560658042,643.9933640764281 967.2756801462316,643.9957187589858C967.702304226659,643.9980734415436 967.311939745693,642.5701183335121 966.4082035218629,640.8224851855825C964.8660097153931,637.8402112148707 964.8744314844593,637.5649863014298 966.5452665229399,636.343241892237C967.5243873973624,635.6272912288264 973.555006522201,633.0071728953143 979.9466423559147,630.5207567066543C986.3382781896283,628.0343405179945 992.27252644844,626.0 993.1338607088295,626.0C993.995194969219,626.0000000000001 996.563543853511,627.3500000000001 998.8413026739229,629.0C1001.1190614943347,630.65 1003.4481348850384,632.0 1004.017021319931,632.0C1004.6113345611857,632.0 1004.3819336776954,630.7054716727895 1003.4777840497869,628.9570390895249C1002.612317116315,627.2834105887634 1000.9132610505108,625.5335161919884 999.7021039035553,625.0683848744691C998.4909467565999,624.6032535569499 995.0922798846201,622.5975859666637 992.1495108547115,620.6113457849443C989.2067418248027,618.6251056032249 986.0567418248027,617.0182883058255 985.1495108547115,617.0406406796124C983.9804251100111,617.0694446362849 984.4465724963715,617.8916014130182 986.75,619.8634667543463C988.5375,621.3936687216631 990.0,622.9751434717059 990.0,623.3778550877751C990.0,623.7805667038441 987.6375,625.1520405616861 984.75,626.4255747718685C981.8625,627.6991089820507 975.1107925750114,630.3823454562994 969.7462057222476,632.3883224924211L959.9924114444952,636.0355534671877L948.446443641459,628.4435335548774C942.0961613497891,624.2679226031067 935.3478687747777,619.48830658538 933.4502379192114,617.8221646265956C931.1334261700516,615.7879769685711 930.0050303485673,613.9234529946527 930.015312774517,612.146407805312C930.0237348005014,610.6908835123904 930.3881489106403,608.9369232312839 930.8251219081591,608.2487182917419C931.2620949056778,607.5605133521999 936.2369355752205,605.1980133522 941.8803233960317,602.9987182917419C947.5237112168429,600.7994232312839 953.1461958018077,599.0 954.3747335848425,599.0C955.6032713678771,599.0 958.6090399498017,600.2632113234625 961.0542193224528,601.8071362743613C963.4993986951038,603.35106122526 966.3747698836276,604.9454266634282 967.443933074728,605.3501705814018C969.2850068016912,606.0471300350493 969.2982350538751,605.9870273682858 967.693933074728,604.2142936354564C966.7622698836276,603.184817397213 966.0,600.9705520809937 966.0,599.293704043858C966.0,597.6168560067225 966.5837724265331,595.7604013483291 967.2972720589624,595.1682492474282C968.0107716913918,594.5760971465273 973.6354731937392,592.2442548954149 979.7966087308457,589.9863775782893C985.9577442679522,587.7285002611637 991.5614718414191,586.1836979924134 992.2493366718833,586.553483647733C992.9372015023474,586.9232693030525 1000.3560837751874,591.787511432216 1008.7357417226385,597.3629106014297L1023.971483445277,607.5L1023.9857417226385,625.1563803848903L1024.0,642.8127607697807L1021.75,642.2923214806034L1019.5,641.7718821914261L1021.75,643.4426450643622C1023.3857327119697,644.6572768355649 1024.0,646.136341267137 1024.0,648.8603110151387L1024.0,652.607214092979L1012.75,657.0416587085599C1006.5625,659.4806032471294 1000.5224808255621,661.7707072341838 999.3277351679158,662.1307786797918C997.7807018998707,662.5970222703532 995.3341915960447,661.6651924088447 990.8277351679158,658.893288197763C987.3474808255621,656.752596987039 984.1766231583525,655.0008698290644 983.7813847963389,655.0005611800416C983.3861464343254,655.0002525310188 983.2787466490508,655.5625 983.54271860684,656.25C983.8066905646292,656.9375 985.3662735796208,658.4 987.0084586401548,659.5C988.6506437006888,660.6 989.9955434859633,662.0112263507083 989.9971248296538,662.6360585571294C989.9987061733442,663.2608907635506 988.3884546774946,664.5368454410444 986.41878817221,665.4715133960044C984.4491216669255,666.4061813509645 983.0771987545995,667.4105320879312 983.3700705892634,667.7034039225969C983.6629424239271,667.9962757572627 986.1289984253701,667.4352838255833 988.8501950369146,666.4567551855314L993.7978252397226,664.6776122036191L998.5703571843808,667.8388061018095C1001.1952497539428,669.5774627458143 1003.7157390750052,671.0 1004.1714445645196,671.0C1004.6271500540338,671.0 1005.0,670.7526530329021 1005.0,670.4503400731157C1005.0,670.1480271133295 1004.3195984022981,668.584928542286 1003.4879964495512,666.9767876930191C1001.9820795483635,664.064665521586 1001.9917903857504,664.0448359634865 1005.9002958900103,662.0508652414519C1008.0586625350096,660.9497487423566 1012.8426408252258,658.9128473134001 1016.5313587571574,657.5244176215485C1020.220076689089,656.1359879296969 1023.4095419408823,655.0 1023.6190593166982,655.0C1023.8285766925143,655.0 1024.0,661.0608768416475 1024.0,668.4686152036611C1024.0,680.8723174843514 1023.8616340591055,681.8867718688928 1022.25,681.2990499296636C1020.5833333333334,680.69125899856 1020.5833333333334,680.7560268779849 1022.25,682.6591753975865C1023.2125,683.7582436676564 1024.0,685.6749163756132 1024.0,686.9184480819349C1024.0,688.1619797882565 1022.9875,690.0157282561302 1021.75,691.0378891216541L1019.5,692.8963634226066L1021.75,692.3315503473425L1024.0,691.7667372720783L1024.0,706.9649281163515L1024.0,722.1631189606246L1020.5791796067501,720.0489356881874C1018.6977283904627,718.8861348883469 1016.9207806142068,718.3191626644062 1016.6304067706262,718.7889974127638C1016.3400329270455,719.2588321611213 1016.9794021040079,720.3941085032346 1018.0512271638761,721.3118337285714C1019.1230522237443,722.2295589539082 1020.0,723.3549621548815 1020.0,723.8127297307344C1020.0,724.2704973065875 1016.9625,725.9085639744446 1013.25,727.4528778815283C1009.5375,728.9971917886119 1002.8020000466001,731.7284158412384 998.282222325778,733.5222646651428L990.064444651556,736.7838079813325L984.782222325778,733.4174999192064C981.8770000466001,731.566030485037 979.0840586879807,730.0396736892371 978.5756859732905,730.02559592854C978.0673132586004,730.0115181678431 978.7423132586003,731.1673982739766 980.0756859732905,732.5942183866146C981.4090586879807,734.0210384992527 985.6266123098662,737.367521710408 989.4480273552583,740.0308477447377C993.2694424006503,742.6941737790673 996.7862566308137,744.632100667027 997.2631700889547,744.3373519402037C997.7400835470957,744.0426032133803 997.4259712372294,743.023186700012 996.5651427336963,742.0719819104966C995.7043142301634,741.120777120981 995.0,739.6626837181834 995.0,738.8317743487241C995.0,738.0008649792647 996.2375,736.7531151426249 997.75,736.0589969339688C999.2625,735.3648787253128 1005.5525294485832,732.817646966174 1011.7278432190736,730.3984819136607C1017.9031569895641,727.9793168611474 1023.1906569895641,726.0 1023.4778432190736,726.0C1023.7650294485832,726.0 1024.0,733.875 1024.0,743.5C1024.0,753.125 1023.6625,760.9856884826582 1023.25,760.9681966281296C1022.8375,760.9507047736008 1021.6264916642028,760.2757047736008 1020.5588703648951,759.4681966281296C1019.4912490655875,758.6606884826583 1018.2537490655875,758.0 1017.8088703648951,758.0C1017.3639916642028,758.0 1017.0030748704974,758.3375 1017.0068330455496,758.75C1017.0105912206018,759.1625 1018.5855912206018,760.5705059383255 1020.5068330455496,761.8789020851676C1023.4906643810436,763.9109385375771 1024.0,764.8246045632862 1024.0,768.145080710081C1024.0,771.5597563574393 1023.6048768631317,772.2127129913306 1020.75,773.5158344375557C1018.9625,774.3317468908068 1010.3,777.9496587757575 1001.5,781.5556386263349C992.7,785.1616184769125 986.9311228015854,787.8792988009063 988.6802728924121,787.5949282352101C990.4294229832387,787.310557669514 998.8760755113342,784.2945179314478 1007.4506118437355,780.8926177061742C1016.0251481761367,777.4907174809006 1023.2645329558003,774.9311996224668 1023.5381335763213,775.2048002429879C1023.8117341968423,775.4784008635089 1023.9150816687468,786.8133648285102 1023.7677946249979,800.3936090541017zM638.0,763.2260000362343C636.075,763.4984215474627 633.375,763.5158985326598 632.0,763.2648377811165C630.625,763.0137770295734 628.9375,762.3463817357873 628.25,761.7817371282587C627.5625,761.21709252073 627.0,758.7551600999822 627.0,756.3107761932636C627.0,753.8663922865449 627.9302425363175,745.9339924084937 629.067205636261,738.6832209087056C630.2041687362045,731.4324494089176 633.7618045657204,707.2999403190281 636.9730630351853,685.0554229311736C641.6857575235808,652.4103974722819 643.1444984554911,644.3675085107644 644.5373645482296,643.3490199572175C645.486471910939,642.655015709396 648.6542703116793,641.5907712121824 651.5769165498746,640.9840321856315C655.2566398636102,640.2201245624046 659.0667678604059,640.1824099561383 663.9664090802328,640.8613946172833C667.8579837337345,641.4006829812427 673.0423659811518,642.8102797831438 675.4872585189379,643.9938319548412C677.932151056724,645.1773841265385 682.1141376881155,648.5327849107641 684.7805621442524,651.450278142009C687.6276438464586,654.565439186932 690.5340115138015,659.1207805221578 691.8222722360158,662.4872138374202C693.0287883303487,665.6400352386515 694.5120197222255,671.4169410149829 695.1183419957421,675.3247822292677C695.7581296286234,679.4483128818081 695.9297265206702,685.7661368185328 695.5272533138549,690.3800066144813C695.1458322653004,694.7525388120639 693.9689073920152,701.743300495544 692.9118647065545,705.9150325777703C691.8548220210938,710.0867646599966 690.010719039822,715.975 688.8138580815059,719.0C687.61699712319,722.025 684.8067541173583,727.5197694492857 682.5688736241021,731.2105987761905C680.330993130846,734.9014281030953 676.2851024325278,740.4735388650954 673.5780054056172,743.5930671361908C670.8709083787068,746.7125954072862 665.3013915833645,751.4548555551847 661.2013014159678,754.1314230204098C657.1012112485711,756.8079904856348 650.9911088160434,759.8377845681031 647.6232960103505,760.864298759228C644.2554832046577,761.8908129503529 639.925,762.9535785250058 638.0,763.2260000362343zM644.1039704993387,746.4633170712922C646.3611542739751,745.6669362516166 651.2948803651797,742.9631586894104 655.0678062575713,740.4549224886118C658.840732149963,737.9466862878132 664.4351282611852,733.1236635425172 667.4997976158431,729.7370941657318C670.5644669705011,726.3505247889464 674.6307408792965,720.4638032822273 676.5359618576106,716.6554908174674C678.4411828359248,712.8471783527075 680.0,709.1856522259969 680.0,708.5187660914441C680.0,707.8518799568913 675.1625,703.9973149295672 669.25,699.9530660307239C663.3375,695.9088171318806 656.3203619772673,691.0820498390829 653.6563599494829,689.2269164911734C650.9923579216984,687.3717831432638 648.6820135239182,685.9993087449685 648.5222612877487,686.1769733838507C648.3625090515794,686.3546380227328 646.3796470743122,699.6247397639894 644.115901338266,715.6660883644208C641.8521556022197,731.7074369648523 640.0,745.5249754593967 640.0,746.3717294634084C640.0,747.7429218901593 640.4487964075685,747.7529376028459 644.1039704993387,746.4633170712922zM372.50612768087296,742.8671231161646C386.5026185031403,742.9516363986496 399.1557195876546,742.45682477185 407.2699706540593,741.5076497680527C414.28671406483164,740.6868571404816 424.8589566084388,739.0536891288149 430.76384297318634,737.8783875199044C436.6687293379338,736.703085910994 441.6053859837042,735.6567575316661 441.73419107489826,735.5532133436204C441.86299616609233,735.4496691555748 440.8372033076147,728.1953371672415 439.45465138939244,719.4324755917687C438.07209947117013,710.6696140162959 435.3565047587768,693.375 433.4199964729628,681.0C431.48348818714874,668.625 429.00640205626866,652.2 427.9153606265627,644.5C426.82431919685666,636.8 425.67425259511435,623.75 425.35965706713534,615.5C424.92074606035106,603.9899323609853 425.1473463017235,598.8203757849082 426.3336024818328,593.2808448358395C427.1838679878955,589.3103094955512 429.0375765775733,584.0856492586867 430.4529549033391,581.6704887539183C431.86833322910485,579.25532824915 435.60793678184865,574.8368453362674 438.76318502054755,571.8516378364014C441.9184332592464,568.8664303365355 448.1,564.5703809336912 452.5,562.3048613856363C456.9,560.0393418375813 464.55,556.809929607243 469.5,555.1283897626622C474.45,553.4468499180814 480.4125,551.5877147248967 482.75,550.9969782222519L487.0,549.9229118538067L487.1103741595794,525.2114559269033C487.17107994734806,511.62015516710653 487.3125853488014,497.9125 487.42483060725345,494.75C487.5370758657055,491.5875 487.2969338707697,489.0 486.8911817296183,489.0C486.48542958846696,489.0 484.88142418701364,490.0523325621683 483.3267252819443,491.3385168048185C481.7720263768749,492.62470104746865 477.27885824119136,495.5764152108166 473.34190720264746,497.8978816122584C469.4049561641035,500.2193480137002 462.2049561641035,503.69234787717727 457.34190720264746,505.6156590866519C452.47885824119135,507.5389702961265 443.325,510.40397587230876 437.0,511.9823381448347C430.675,513.5607004173606 421.675,515.537545169468 417.0,516.375326482851C412.325,517.213107796234 403.83828226263506,518.4246062310187 398.1406272503001,519.0675452268172C391.5181919446837,519.8148389636116 378.71227381910916,520.0506565777932 362.6406272503001,519.7212683899172C346.6070454566078,519.3926603391131 333.80382206535734,518.6124158477267 327.29644582335845,517.567349644753C321.68449102620565,516.6660855910062 312.38055771777925,514.6054881922158 306.6210384712998,512.9882443141079C300.8615192248203,511.37100043599986 291.2959311429863,507.9223394090122 285.3641760672242,505.3245531430241C279.4324209914621,502.7267668770361 271.78127645690887,498.4835895176601 268.36163265710593,495.89527012218866C264.94198885730304,493.30695072671716 261.88667631862575,491.4466570147112 261.5720492378231,491.7612840955087C261.25742215702036,492.07591117630625 261.0,498.30677568585617 261.0,505.60764967228624C261.0,513.3785045724289 261.4145947179718,519.1381996385129 262.0,519.5C262.55,519.8399186938125 263.0,521.3863762193322 263.0,522.9365722789328C263.0,524.4867683385334 262.2901607792653,526.3442247981288 261.4225795094785,527.064253300256C260.1232371102345,528.1426117135352 259.0214458751592,528.1429852541696 255.17257950947848,527.066372239753C252.6026607792653,526.347509154349 247.8,525.1543032052772 244.5,524.4148034640377C241.2,523.6753037227983 235.04042386027146,523.0544503219737 230.8120530228255,523.035129239983C226.58368218537953,523.0158081579923 220.05868218537952,523.6952481118209 216.3120530228255,524.5449958040465C212.56542386027147,525.394743496272 205.45,528.0848802830596 200.5,530.5230775524635C195.55,532.9612748218674 188.7456636216772,537.1893944141904 185.37925249261602,539.918898868737C182.01284136355483,542.6484033232834 177.11010356914824,547.7207665364957 174.4842796161569,551.1908171203198C171.85845566316556,554.6608677041439 168.43559260696662,560.2 166.8779172690481,563.5C165.3202419311296,566.8 163.07803322930363,573.1 161.89523126499037,577.5C160.09686368582956,584.1898919574435 159.72791147639222,588.4477430957521 159.6422738144438,603.5C159.56434676080525,617.1969880362279 159.97125266219237,623.64562091669 161.34440857182608,630.4753820871472C162.3369073218737,635.4118422350781 164.49095398528158,642.9306920231659 166.1311789349547,647.1839371717865C167.77140388462783,651.4371823204071 171.26066985225893,658.198260381191 173.88510330746828,662.2085550846393C176.50953676267764,666.2188497880877 181.4387224998745,672.0681060151366 184.838849390128,675.2069022558592C188.23897628038148,678.3456984965817 194.01054715129996,682.5857113873283 197.6645624366135,684.629153124185C201.31857772192706,686.6725948610416 208.17637560859,689.6887076531908 212.90411329586453,691.3316259956275C220.3063677740518,693.9039556090773 223.30519118869506,694.3759878639613 234.5,694.7309442240348C245.6625161913566,695.0848766746315 248.5600868126789,694.8369226062175 255.0,692.976695901291C259.125,691.7851526405947 263.625,690.7404465470648 265.0,690.655126804558C267.4589495491317,690.5025472101075 267.50821009017363,690.6477816231259 268.0,699.5C268.39358907256127,706.5846033061024 268.99240059188344,709.2919233600772 270.81367493797495,712.2210622026249C272.08619615386124,714.2676464140686 275.13931521537745,717.7131271253979 277.59838396356656,719.8776860055791C280.05745271175573,722.0422448857602 285.541298989667,725.5988851641307 289.7847090255916,727.7813310686247C294.02811906151624,729.9637769731187 301.1,732.9143187813117 305.5,734.338090642387C309.9,735.7618625034623 318.048201939212,737.8386619320275 323.6071154204711,738.9532004836431C329.16602890173016,740.0677390352587 337.49102890173015,741.3744219180104 342.1071154204711,741.8569402230912C346.723201939212,742.3394585281721 360.40275745639286,742.7940408300552 372.50612768087296,742.8671231161646zM306.3105518374023,721.9275632036197C305.314748326831,721.8877229656106 301.8,720.6502229656106 298.5,719.1775632036197C295.2,717.7049034416289 292.000382204781,716.1748056923734 291.3897382328465,715.7773459830521C290.77909426091213,715.3798862737307 289.9913060807227,711.3298862737307 289.63909783242553,706.7773459830521C289.28688958412835,702.2248056923734 288.12636374624145,681.4 287.06015152601015,660.5C285.9939393057789,639.6 284.60355822161574,610.575 283.97041578342544,596.0C283.33727334523513,581.425 282.29483900827216,556.071122096859 281.6538950346189,539.6580491041309C281.0129510609657,523.2449761114029 280.78331108964863,509.6339211115823 281.1435839872477,509.4112602156407C281.5038568848468,509.18859931969905 285.3314348549157,510.24247722284014 289.64931280962304,511.75321111150976L297.5,514.5L298.16533039164074,524.0C298.5312621070431,529.225 299.5584771870382,549.7 300.4480305694076,569.5C301.33758395177694,589.3 303.16465441502856,628.675 304.5081871544113,657.0C305.851719893794,685.325 307.2142531406299,711.5375 307.5360388140467,715.25C308.0630198992979,721.3298768889284 307.9413566185029,721.9928086560968 306.3105518374023,721.9275632036197zM961.75,718.9675559134796C962.4375,718.9854001610659 962.9856884826582,718.6625 962.9681966281296,718.25C962.9507047736008,717.8375 962.2901196102903,716.6462051280284 961.5002295985507,715.6026780622855C960.7103395868111,714.5591509965425 960.3051830023514,713.3152205237815 960.599881633085,712.8383881228167C960.8945802638185,712.3615557218518 963.0035964146986,711.0184891115337 965.2865841905964,709.853795655443C967.5695719664943,708.6891021993524 973.5015400682955,706.2227228801557 978.4687355279326,704.372952723895C983.4359309875697,702.5231825676342 988.1212565489966,701.0075440499238 988.8805701088813,701.004867128983C989.6398836687661,701.0021902080424 992.4534252956083,702.575 995.1328848351974,704.5C997.8123443747864,706.425 1000.4694205171095,708.0 1001.037498484804,708.0C1001.7427190785128,708.0 1001.73780557919,707.3786023351574 1001.0220093180801,706.0411247870119C1000.4454123086873,704.9637434198684 996.9561705502589,701.9262434198685 993.2681387437949,699.2911247870119C989.5801069373308,696.6560061541553 985.5678456721785,693.9806897633359 984.3520025990119,693.3459772518577C983.1361595258454,692.7112647403793 981.8782682360468,692.4550650972867 981.5566886216816,692.7766447116518C981.2351090073163,693.0982243260169 982.1274064665766,694.5673210626389 983.5395718644822,696.0413041263675L986.1071453152197,698.7212733331468L982.8035726576098,700.2538855993415C980.9866076959245,701.0968223457486 974.1602287479938,703.9079512286778 967.6338416622084,706.5008386725175C957.7454376251458,710.4294316796894 955.4120320340522,711.0271290971797 953.6338416622084,710.0869121253295C952.4602287479938,709.4663650805365 950.0758250787726,708.0489095938394 948.3351668417167,706.9370110437804C946.594508604661,705.8251124937215 944.9292680396812,705.3054297215117 944.6346322528727,705.7821604388698C944.3399964660642,706.2588911562281 947.7891713872917,709.4133314211037 952.299465411156,712.7920276941493C956.8097594350202,716.1707239671948 961.0625,718.9497116658935 961.75,718.9675559134796zM927.1955122540794,694.0C927.7276959426792,694.0 927.2048574598449,692.449500321628 926.033648958892,690.5544451591732L923.9041789571593,687.1088903183464L926.2020894785796,685.658489932785C927.4659402653608,684.8607697207262 934.0426224876819,682.1191510133659 940.8169388615153,679.5660039164287L953.1338777230305,674.9239182856338L959.2124989642477,678.983065706751C962.5557406469173,681.2155967883654 965.5262961654635,682.8070371678697 965.8137334499061,682.5195998834273C966.1011707343487,682.2321625989849 965.7346278239695,680.8726646452145 964.9991936490635,679.4984933194933C964.2637594741576,678.124321993772 963.1656112144645,677.0 962.5588641830791,677.0C961.9521171516935,677.0 959.890658015843,675.7353479922714 957.9778438811891,674.1896622050475C956.0650297465351,672.6439764178236 952.8718847050625,670.3939764178236 950.8819660112501,669.1896622050475C948.8920473174377,667.9853479922714 946.9011060054183,667.0 946.4576519845407,667.0C946.0141979636629,667.0 946.5468886344281,668.0125 947.6414090306857,669.25C948.7359294269432,670.4875 949.6018707389625,672.1426239583944 949.5657230573952,672.9280532408765C949.5295753758278,673.7134825233585 948.375,674.6757865249618 947.0,675.0665065777725C945.625,675.4572266305834 938.8760189307264,678.0524759780033 932.0022642905033,680.8337273498169L919.5045285810065,685.8905480258413L914.714242024426,682.8166296123313C912.0795844183067,681.1259744849008 909.6211513918304,680.0455152748364 909.2510575211454,680.4156091455213C908.8809636504603,680.7857030162064 909.910573670195,682.1936920399095 911.5390797872226,683.5444736426392C913.1675859042502,684.895255245369 917.1387787481951,687.8003411496192 920.3639527737671,690.0002200965284C923.589126799339,692.2000990434378 926.6633285654796,694.0 927.1955122540794,694.0zM683.25,692.9391040315646C683.6625,692.972596814204 684.0,691.9187262306012 684.0,690.597169401336C684.0,688.7219376566812 682.0787284899952,686.8144732100168 675.25,681.9100505733093C670.4375,678.4536920471598 663.0396985950268,673.2448145189937 658.8104413222818,670.3347671773845C651.6009066091115,665.3740646300355 651.0796957090969,665.173540553483 650.4611044242728,667.1225491074022C650.0982264031128,668.265876510521 650.1973056517166,669.5973056517166 650.6812805322811,670.0812805322812C651.1652554128457,670.5652554128457 658.5224570169498,675.8925538311539 667.0306174302902,681.9197214618548C675.5387778436306,687.9468890925557 682.8375,692.9056112489252 683.25,692.9391040315646zM238.0,679.6240155136904C229.85691603329605,679.9245390635335 225.91609192621547,679.5824745046873 220.44373047669424,678.1001267466975C216.56278223887608,677.0488593967115 211.73025532645505,675.4963068423181 209.70478178242533,674.6500099591566C207.6793082383956,673.8037130759951 203.94323652543827,671.680990901655 201.40240019807567,669.9328495717341C198.8615638707131,668.1847082418132 195.41557739591894,665.3471683622962 193.74465247631088,663.6272053950298C192.07372755670283,661.9072424277634 188.97020184713028,657.8389914677088 186.84792867726077,654.5866477060194C184.72565550739125,651.3343039443301 181.6354173354081,644.4469069227802 179.98073273952042,639.2813209914641C177.93914244343782,632.9078948187872 176.59324524573907,625.8681687613564 175.79307992916276,617.3777694728537C174.8722786400412,607.60732523083 174.88498650328816,602.416113367907 175.85108346971236,593.6830961874091C176.53150986682368,587.5323932843341 177.77613409910344,579.8 178.61691509700077,576.5C179.4576960948981,573.2 181.66940906914778,567.35 183.53183281755562,563.5C185.39425656596347,559.65 188.77273122554834,554.3610682825538 191.03955428329976,551.746818405675C193.30637734105116,549.1325685287962 198.1623143327525,545.2251101966018 201.83052537596933,543.0635776674651C205.4987364191862,540.9020451383283 211.2649550345167,538.4284768557745 214.6443445211482,537.56675926179C218.02373400777972,536.7050416678055 224.54873400777973,536.0078136306986 229.1443445211482,536.0173636237746C233.7399550345167,536.0269136168507 240.425,536.6618122031521 244.0,537.428249371111C247.575,538.1946865390698 252.64531083453787,539.7492291974547 255.26735741008417,540.8827886119661C257.88940398563045,542.0163480264775 261.1519039856305,544.0609948947216 262.5173574100842,545.426448319175C263.88281083453785,546.7919017436286 265.0,548.5700190776707 265.0,549.377820172602C265.0,550.1856212675333 263.82665175273127,552.240994599228 262.39255945051394,553.9453164652568L259.7851189010279,557.0440834944001L258.9285793934198,607.6758147419071C258.45748266423533,635.5232669280358 258.3073885589728,658.6883481417958 258.5950369372808,659.153772994707C258.8826853155888,659.6191978476181 259.9301127049176,660.0 260.9226533580113,660.0C261.9151940111051,660.0 263.9136363636364,661.1863636363636 265.3636363636364,662.6363636363636C266.81363636363636,664.0863636363637 268.0,666.2963614974667 268.0,667.5474699943704C268.0,668.8549297316384 266.70485199967567,670.9120079093505 264.954222771642,672.3850652877722C263.27904529604507,673.7946342022395 258.8915452960451,675.9128508883867 255.20422277164198,677.0922134792106C250.6940902758853,678.5347456987147 245.06366611290971,679.3633282821896 238.0,679.6240155136904zM684.2953130586561,676.9457582761702C684.7327352409169,676.9755912242766 684.7882059063547,675.3125 684.4185812040735,673.25C684.0489565017922,671.1875 683.1406211457221,668.0113971418294 682.4000581905843,666.1919936485099C681.6594952354467,664.3725901551903 680.1121183348921,661.561826181364 678.9614428560187,659.9458514844516C677.8107673771455,658.3298767875392 674.7951039841187,655.7921525507951 672.2599686492927,654.306464291687C668.4024466178487,652.0458058121819 666.5463617692737,651.6222290597457 660.8804122581063,651.7095380013586C657.1567915777797,651.7669168007861 653.6060852203179,652.1254187337645 652.9899536859689,652.5062089635328C652.2191036122067,652.9826205093483 652.4358356569803,653.8318215804356 653.6848572663037,655.2289852162974C654.6831857698367,656.3457219255496 657.075,658.3115600451156 659.0,659.5975143708883C660.925,660.8834686966611 667.225,665.3006914116677 673.0,669.4135648486806C678.775,673.5264382856934 683.8578908763952,676.9159253280637 684.2953130586561,676.9457582761702zM230.0,665.8047053901386C233.575,665.806048868202 238.975,665.288039760083 242.0,664.6535740387633L247.5,663.5L248.20293918239557,624.0C248.58955573271314,602.275 249.03955573271313,577.3958212152944 249.20293918239557,568.7129360339876L249.5,552.9258720679752L244.5,551.4355598297079C241.75,550.615888098661 236.2907701829774,549.6710386569016 232.36837818439423,549.335894403576C227.20513392109373,548.8947269618754 223.25700819784467,549.2117035737509 218.06393770461847,550.484331255866C212.96444715380468,551.734025988128 209.2282744360227,553.4662378153652 205.13839580411883,556.4770350853578C201.9743980241375,558.8062376694932 197.78780391553752,563.1392603778885 195.8348533405633,566.1059744373474C193.8819027655891,569.0726884968063 191.3751289770806,573.975 190.26424492165555,577.0C189.15336086623049,580.025 187.67861891113094,585.699635702295 186.9870405769899,589.6103015606557C186.17182600990134,594.2200928415103 185.9183701323054,601.4294158636961 186.26632859408568,610.1103015606557C186.56353529611826,617.5250297311251 187.52432553866674,626.1774181491577 188.41942576984968,629.5C189.30844247297617,632.8 191.4554717443467,638.3329607446335 193.19060192845092,641.795468321408C194.9257321125551,645.2579758981823 198.6491931140283,650.4886404513468 201.46495970950247,653.4191673284403C204.2807263049766,656.3496942055338 208.56604618906786,659.7582894197036 210.98789278526078,660.9938233599289C213.4097393814537,662.2293573001543 217.2157189304853,663.8167018551086 219.44562511644213,664.5212557042719C221.67553130239895,665.2258095534352 226.425,665.8033619120752 230.0,665.8047053901386zM549.5,630.4732954236654C564.8648476100694,630.2683805050958 575.6536499001887,629.6264840474604 582.0,628.5396577211507C587.225,627.6448650504567 595.1,625.9980525968829 599.5,624.8800744909863C603.9,623.7620963850899 610.812747043679,621.5252197707338 614.8616600970644,619.909237570195C618.9105731504497,618.2932553696562 624.8745318641154,615.1113690827898 628.1149016829879,612.8383791549363C631.3552715018603,610.5653892270827 635.3550244581814,606.6697443472483 637.0032415859234,604.1813905330819C639.0555833054829,601.0829199129914 640.0,598.4193978277573 640.0,595.7296845580139C640.0,593.569600085893 639.2666758362103,590.2568922835316 638.370390747134,588.3681116638775C637.4741056580579,586.4793310442234 634.8952185559486,583.3542318955286 632.6395305202248,581.4234468890004C630.383842484501,579.492661882472 626.719161687583,576.8962042695327 624.4957954159627,575.6535410824687C622.2724291443424,574.4108778954046 617.4668382666329,572.1985863726293 613.8167045766081,570.7373376985236C610.1665708865835,569.276089024418 602.6012936398165,566.9198548233669 597.0049773615704,565.5012616961881C591.4086610833241,564.0826685690091 580.6806390631428,562.2693688224076 573.1649284278341,561.4717067037404C565.6492177925253,560.6740445850731 553.425,560.0212370869972 546.0,560.0210233746827C538.575,560.0208096623682 527.1,560.4856109711582 520.5,561.0539151719938C513.9,561.6222193728295 503.1,563.1912574041006 496.5,564.5406663525966C489.9,565.8900753010926 481.575,568.0557741516425 478.0,569.35333046493C474.425,570.6508867782173 469.09690419423805,572.9303580098334 466.15978709830677,574.4188220907433C463.2226700023755,575.9072861716534 458.8006202137368,578.9861272163165 456.33300979022084,581.2606910788836C453.8653993667049,583.5352549414508 451.2059951724668,586.6347558799271 450.4232226919141,588.1484709421641C449.6404502113613,589.6621860044012 449.0,592.5709912178766 449.0,594.6124825276647C449.0,596.7759541521883 450.0518363098426,600.1191078668668 451.52155975222263,602.6270013016823C453.0090625274484,605.1652328741594 456.5973171943254,608.7405159797595 460.27155975222263,611.3453700013122C463.69720188850016,613.7739787701871 468.836640694675,616.9342690301161 471.6925348770555,618.3682372455987C474.548429059436,619.8022054610813 480.848429059436,622.1274641601548 485.6925348770555,623.5354787990952C490.536640694675,624.9434934380356 499.675,626.9548424799866 506.0,628.0051433367639C512.325,629.0554441935412 519.525,630.109463881376 522.0,630.3474093097298C524.475,630.5853547380837 536.85,630.6420034893547 549.5,630.4732954236654zM468.3911163089235,613.0C468.17600233901555,613.0 467.1,612.1 466.0,611.0C464.68881352789685,609.6888135278969 464.0,607.6666666666666 464.0,605.1286087472633C464.0,602.0534998827075 464.77131417641334,600.4105087396333 467.75,597.1406617148645C469.8125,594.8765560360503 474.14266824403614,591.4622643804959 477.37259609785815,589.5533469247434C480.60252395168015,587.644429468991 486.67752395168014,584.9576755907844 490.87259609785815,583.5827827509511C495.06766824403616,582.2078899111176 502.55,580.2959086877246 507.5,579.3339355878554C514.3425629962798,578.0041655804653 521.5340196753473,577.5897512812884 537.5,577.6051580216225C552.4773403209491,577.6196107510215 561.2245365214754,578.1004612907291 568.0,579.2818028715687C573.225,580.1928121005981 581.1,581.8592468024007 585.5,582.9849910977966C589.9,584.1107353931926 596.673371630423,586.5351365803258 600.5519369564958,588.3725492914259C604.4305022825685,590.2099620025261 609.3113260288928,593.21246248901 611.3982119483278,595.0447725947236C613.4850978677628,596.8770827004371 615.588088356161,599.416590273507 616.0715241447683,600.6881227571014C616.5855984444586,602.0402406317837 616.569411653078,604.0023338559365 616.0325332519803,605.4144310626873C615.5276524723397,606.7423681471654 614.2313455344756,608.1091861091619 613.151851167838,608.4518043115686C611.8473363401715,608.8658412339288 608.0339138950292,607.3888700901999 601.7804684115397,604.0475704673106C595.3327821954886,600.6024854211421 588.7728365259788,598.0894557783533 580.9359013427459,596.062288641205C574.6461556042357,594.4353304535953 565.1302361881437,592.6307417053021 559.7894137514306,592.0520914227754C554.4485913147174,591.473441140249 545.2117858431981,591.0 539.2631793702766,591.0C533.3145728973551,591.0 524.7515855134166,591.463432481816 520.2343185170798,592.029849959591C515.7170515207431,592.596267437366 507.6288569922624,594.1667617154194 502.2605528982338,595.519837244154C496.8922488042052,596.8729127728886 489.35,599.538749346668 485.5,601.4439185192196C481.65,603.3490876917709 476.31350233901554,606.7285934137175 473.6411163089235,608.9539312346565C470.9687302788314,611.1792690555955 468.6062302788314,613.0 468.3911163089235,613.0zM1023.7775299482978,590.265968299145L1023.5,604.8102100350279L1015.5,599.3463246639571C1011.1,596.3411877098682 1006.7125,592.9590376689475 1005.75,591.8304356841334C1004.7875,590.7018336993192 1004.0,588.3230292613702 1004.0,586.5442035998022C1004.0,584.704286396606 1004.7730739810554,582.6103527867765 1005.7932135619808,581.6871391544207C1006.7794810210702,580.7945793710289 1011.0484894186234,578.8438433656318 1015.2798988898768,577.3521702535381C1019.5113083611302,575.8604971414444 1023.2167507349728,574.8834174016396 1023.5142152761938,575.1808819428604C1023.8116798174148,575.4783464840814 1023.9301714198616,582.2666353444095 1023.7775299482978,590.265968299145zM1023.7803612594906,529.7563214325992L1023.5,542.8963647906614L1011.5,535.6834997829048C1004.9,531.7164240286386 997.025,527.063199515862 994.0,525.3430008656235C990.975,523.6228022153848 982.875,518.9504753752597 976.0,514.9600523320121C969.125,510.96962928876434 955.175,502.89952252359456 945.0,497.02648174274583C934.825,491.1534409618971 918.85,481.9224780839339 909.5,476.5132309028276C900.15,471.1039837217213 886.65,463.3010744135778 879.5,459.17343244028643C872.35,455.045790466995 860.425,448.2068520334455 853.0,443.975791476843C845.575,439.74473092024056 827.35,429.3021914220785 812.5,420.7701481475941C797.65,412.2381048731097 775.825,399.6563082439278 764.0,392.81060008274545C752.175,385.9648919215631 738.1482663503147,377.8017889788601 732.8294807784769,374.6703713211831C727.5106952066392,371.53895366350616 722.9731051695121,368.4195856199176 722.7459473626388,367.7384423354307C722.4448279786748,366.83552181053614 719.5108786989958,367.4099960149073 711.9164665841619,369.8588802711024C706.1874099628728,371.70626442020875 700.375,373.0562644202087 699.0,372.8588802711024C697.1716339154002,372.59641446465616 696.4191260021532,371.8040439411425 696.198965478096,369.909466515539C695.932743557773,367.6185106659163 696.5687812702727,367.02446040063944 701.698965478096,364.77254397963765C704.8895344651432,363.3720300013454 711.9028776576566,360.7830382885068 717.2841725725704,359.01922906221847L727.0683451451407,355.81230319623967L722.5546968091696,351.83923103433455C719.6007458873927,349.2390594433368 717.6881491337111,346.5555907792435 717.0197840266803,344.0734722659431C716.325555717756,341.4953051535187 716.3248162510109,338.5546379832527 717.0174748289824,334.8903928297284C717.5779002158336,331.9256767733778 722.2576160800759,314.65 727.4168434161877,296.5C732.5760707522995,278.35 740.412734999469,250.675 744.8316528543421,235.0C749.2505707092153,219.325 756.4698921165411,193.675 760.8745893150664,178.0C765.2792865135916,162.325 771.8817377647157,138.7 775.5467032064532,125.5C779.2116686481909,112.3 785.575381079898,89.35 789.6882863880246,74.5C793.8011916961512,59.65 798.8634492861875,41.425 800.9377476992163,34.0C803.012046112245,26.575 806.0057879533985,15.887500000000001 807.5905073462241,10.25L810.4718153331796,0.0L816.3032953371469,0.0C821.3916884197513,0.0 822.0674516987161,0.22299692556611683 821.6064435091957,1.75C821.3158610016407,2.7125 820.1319693130737,7.1 818.9755730901582,11.5C817.8191768672427,15.9 813.3269664352201,32.1 808.9928832412193,47.5C804.6588000472183,62.9 797.4539902297353,88.775 792.9821947579237,105.0C788.5103992861121,121.225 780.7989111496647,148.9 775.8455544547072,166.5C770.8921977597497,184.1 763.0327671120955,212.0 758.3801530154757,228.5C753.7275389188559,245.0 746.8186380097784,269.3 743.0270398841926,282.5C739.2354417586068,295.7 734.3032494605601,312.8580440493527 732.0666125552,320.62898677633933C729.82997564984,328.39992950332595 727.9999999999999,335.65086983806646 728.0,336.74218752020715C728.0,338.18689550946885 730.6510161576241,340.3113295941755 737.75,344.5555055440602C743.1125,347.76151277503874 752.9,353.5905257780738 759.5,357.50886777302696C766.1,361.4272097679802 779.15,369.151652574084 788.5,374.67429623103544C797.85,380.19693988798696 814.5,390.04558929613813 825.5,396.5601838047048C836.5,403.07477831327145 862.825,418.72458488811833 884.0,431.337531748809C905.175,443.95047860949967 934.425,461.4883752209526 949.0,470.31063532981557C963.575,479.1328954386786 985.625,492.41060744699485 998.0,499.81666201496284C1010.375,507.22271658293084 1021.3011625667708,514.0323797923219 1022.2803612594906,514.9492469247208C1023.8430338782413,516.4124465526252 1024.0264421384297,518.2229397352714 1023.7803612594906,529.7563214325992zM924.7148162415119,535.986876207485C923.4966673086803,535.9796581216018 914.85,530.7465028666755 905.5,524.3576423076489C896.15,517.9687817486223 880.85,507.93107133186663 871.5,502.0516191593031C862.15,496.1721669867395 846.175,486.39458890379814 836.0,480.3236678638778C825.825,474.25274682395747 812.55,466.3768566821233 806.5,462.82168977091294C800.45,459.26652285970266 790.775,453.56732279339576 785.0,450.15680073467547C779.225,446.74627867595524 763.25,437.55328494117674 749.5,429.7279257685011C726.633905759353,416.71444210964205 724.4718259702702,415.2531930221379 724.1699241566035,412.6085065872718C723.9824452769951,410.966175116313 724.4144579996494,409.3527427197702 725.1699241566035,408.87381936178883C725.9014658704716,408.4100627647738 727.2113281854333,408.0237348005015 728.080729300963,408.01531277451704C728.9501304164925,408.00689074853267 742.9001304164925,415.5540818658546 759.080729300963,424.786848590788C775.2613281854333,434.0196153157214 793.9,444.7651011345084 800.5,448.6657059658703C807.1,452.56631079723223 823.75,462.41687037902255 837.5,470.5558383698489C851.25,478.6948063606753 871.725,491.1946064279034 883.0,498.3331718525782C894.275,505.4717372772529 908.8272844833075,514.9082393995433 915.3384099629054,519.303176568779C921.8495354425033,523.6981137380147 927.6333318308136,528.2959059134924 928.1912908258171,529.520492514285C928.8985404100201,531.072736266939 928.861111415545,532.3909986020916 928.0676971044236,533.8735068033176C927.4280631437322,535.068673791379 925.9596240126382,535.9942522590974 924.7148162415119,535.986876207485zM386.0,504.42483325764886C376.375,504.6527710998472 363.55,504.48636149931633 357.5,504.05503414535804C351.45,503.62370679139974 342.9,502.72993184206473 338.5,502.06886759128014C334.1,501.40780334049555 326.18065677345896,499.79366014651515 320.9014594965755,498.48188271576805C315.622262219692,497.1701052850209 308.28044154382854,494.959175392393 304.58630243910113,493.5687051765948C300.89216333437366,492.1782349607966 294.65072757154627,489.3490628004988 290.7164451883735,487.28165593148856C286.7821628052007,485.21424906247825 280.9972201530901,481.0119192456751 277.86101707257205,477.9431452274814C273.6876534627684,473.8595098615838 271.97045742792386,471.3594458154121 271.45624134474315,468.6184384403567C271.06981777495525,466.5586237256318 270.99838635801774,463.0486976145523 271.2975048626598,460.81860263795784C271.61310261747553,458.4656456770332 273.0678200494689,455.2395619417076 274.7636017710204,453.1319422493476C276.3708365659767,451.1343740122064 280.3440313108882,447.6017493604293 283.5929234263795,445.2816652453985C286.8418155418708,442.96158113036756 292.7900466006316,439.67459033220536 296.81121466807025,437.9772412494824C300.8323827355089,436.2798921667595 309.15738273550886,433.5879501394938 315.31121466807025,431.99514785555857C321.46504660063164,430.4023455716234 331.225,428.41157460017024 337.0,427.5712123634404C342.775,426.7308501267106 354.475,425.6108572567366 363.0,425.0823393190538C372.44647094701486,424.4966936482858 386.1157300989168,424.4634104291527 398.0,424.99711797262125C411.97792250574355,425.6248488088803 421.26642515412414,426.611793584274 430.8003005810425,428.48229599487723C438.11546590061585,429.9174977099731 448.0154659006158,432.4721159588519 452.8003005810425,434.1592254368301C457.58513526146913,435.8463349148084 463.7313578905652,438.35583237695664 466.4585730901449,439.7358864638263C469.18578828972466,441.115940550696 473.8041751104205,444.0084773807598 476.7216549139134,446.1637460861904C479.6391347174063,448.31901479162093 483.18378129602513,451.8316948271475 484.59864731084406,453.9697017206939C486.013513325663,456.10770861424027 487.4057678656766,459.6063356344583 487.692546288652,461.7444284322895C488.05921241763184,464.47812855326276 487.54591262671545,467.1847916275512 485.9630226661989,470.86431861702135C484.5015111707753,474.2616937517257 481.93115252886236,477.65468267072066 478.6340142676534,480.5389390680331C475.841076063778,482.9821335123182 470.36004235735743,486.5602361908106 466.4539393644966,488.4902783535716C462.5478363716357,490.42032051633265 456.1041622628949,493.10408434163026 452.13466356729475,494.45419796534406C448.1651648716946,495.8043115890578 440.5484797390351,497.8605474826946 435.2086966058291,499.02361106231456C429.8689134726231,500.1866746419346 420.55,501.7845010739209 414.5,502.5743364667287C408.45,503.36417185953644 395.625,504.19689541545046 386.0,504.42483325764886zM1023.25,474.98615215313725C1022.8375,474.97853583736276 999.775,461.32610334148376 972.0,444.6474132734062C944.225,427.9687232053286 899.45,401.12838092119483 872.5,385.0022081975534C845.55,368.8760354739119 818.775,352.89590556163284 813.0,349.4908083924888C807.225,346.08571122334473 795.3143314134558,338.9053092832199 786.5318475854573,333.5343596366557C777.7493637574588,328.16340999009157 768.9743637574588,322.6099655245089 767.0318475854573,321.1933719353609C765.0893314134557,319.7767783462129 761.9973183788908,317.2412541015598 760.1607075086462,315.55887361390955C758.3240966384016,313.8764931262593 755.7716574066128,310.4466487744324 754.4886203268934,307.9369972765164C753.2055832471739,305.4273457786004 751.6488377342966,300.57812463543644 751.0291858538328,297.16095029170765C750.1266445513105,292.1837347286295 750.2020666936121,289.2126356790278 751.4083655160857,282.2239530151912C752.2365662107886,277.4257788568361 755.6561274356086,264.275 759.0073904601301,253.0C762.3586534846515,241.725 769.1743555656725,218.775 774.153395084621,202.0C779.1324346035694,185.225 786.9525449053547,158.9 791.5314179774768,143.5C796.1102910495991,128.1 803.4545048965409,103.35 807.851893192903,88.5C812.2492814892652,73.65 818.2885070732966,53.175 821.2723944907508,43.0C824.256281908205,32.825 828.2281743640173,18.98811825724113 830.0988221703337,12.251373904980284L833.5,0.002747809960567338L857.680194339617,0.0013739049803405123L881.8603886792339,1.1368683772161603e-13L881.0262930183542,2.750000000000057C880.5675404048703,4.262500000000026 879.2940767846935,8.2 878.1963738624056,11.5C877.0986709401177,14.8 872.9835905324825,26.724999999999998 869.0517507343272,38.0C865.119910936172,49.275000000000006 858.5063405123769,67.94999999999999 854.3549275703382,79.5C850.2035146282994,91.05000000000001 843.6568847798335,109.05 839.8068612404139,119.5C835.9568377009944,129.95 828.5488204678896,149.975 823.3446007224035,164.0C818.1403809769173,178.025 810.9335554682461,197.15 807.3294329253563,206.5C803.7253103824664,215.85 796.5328904158177,234.3 791.3462774439146,247.5C786.1596644720114,260.7 780.3225567779116,275.2651009465595 778.3749270125816,279.86689099235446C776.4272972472517,284.4686810381494 775.2086810381494,288.5816510657002 775.6668909923544,289.00682438691183C776.1251009465595,289.43199770812345 779.875,291.2383799401246 784.0,293.02100712469223C788.125,294.80363430925985 795.4285080213649,298.22816428170904 800.2300178252553,300.63107373013486C805.0315276291457,303.0339831785606 809.5766436399891,304.99999999999994 810.3302756271296,305.0C811.1722163056078,305.0 816.7420836040969,293.33704019627555 824.7767359266405,274.75C831.968657104231,258.1125 842.6369077399739,233.475 848.4839595616248,220.0C854.3310113832757,206.525 865.9037005465449,179.75 874.2010465911118,160.5C882.4983926356787,141.25 901.3349208159282,97.375 916.0599981027772,63.0L942.832865897048,0.5L983.4164329485241,0.2387826041413348L1024.0,-0.022434791717330427L1024.0,237.48878260414133C1024.0,368.1199521718636 1023.6625,474.99376846891175 1023.25,474.98615215313725zM501.99239989215255,433.0C501.58126913845507,433.0 500.70263025395076,432.3466176632068 500.0398690376986,431.5480392515707C499.3771078214465,430.7494608399345 498.9906656587519,429.28698581682744 499.1811086761551,428.2980947557772C499.3945919081357,427.1895654819381 501.6311501635086,425.6686849457145 505.01368435389867,424.3318887322939C508.0311579592544,423.13936648042846 517.925,419.9144801482273 527.0,417.165474660736C536.075,414.4164691732446 551.375,409.9085249095391 561.0,407.14782074139055C570.625,404.38711657324194 586.15,400.10235952627374 595.5,397.6261384147946C604.85,395.1499173033154 618.8,391.550013215404 626.5,389.62635155276917C634.2,387.70268989013437 648.5080504251625,384.50200417924924 658.2956676114723,382.51371663969104C669.1040671985062,380.31806413179316 678.1347575929751,379.0167053477904 681.2956676114723,379.1993241929745C686.1113025822829,379.47754334253926 686.5231814530349,379.70071342359046 686.8103802118138,382.18738438587775C687.0335919149022,384.12003222486 686.4719033445126,385.2809173677743 684.8103802118138,386.32093882907793C683.5396710953162,387.1163323606053 671.475,390.1111728820379 658.0,392.9761399878171C644.525,395.8411070935963 618.425,401.998170550721 600.0,406.6585032258721C581.575,411.31883590102314 556.6,417.84349901036023 544.5,421.1577545799546C532.4,424.4720101495489 518.0539798295197,428.4923471929841 512.6199551767104,430.0918368986994C507.1859305239011,431.6913266044147 502.4035306458501,433.0 501.99239989215255,433.0zM390.4897804052521,420.53452129857425C388.29540118236343,420.759213269283 385.92546869582685,420.6893549849421 385.2232637685041,420.37928066670554C384.52105884118134,420.069206348469 383.09952322822113,418.15524357608246 382.06429573970365,416.12603006140216C381.0290682511862,414.0968165467218 379.6910995553593,409.78068020787765 379.0910319711995,406.5346159750818C378.4909643870398,403.2885517422859 378.0,394.5160223084112 378.0,387.04010612202694C378.0,379.5641899356427 378.4527486183732,369.8367909769075 379.00610804082936,365.4236639915044C379.5594674632855,361.0105370061013 381.3285513585285,352.0223424776206 382.93740558581374,345.4498983726585C384.54625981309897,338.8774542676963 387.87995683215223,328.48910507986056 390.3456211837098,322.36467795524567C392.8112855352674,316.24025083063077 397.15722173562216,306.80485940821086 400.0032571844982,301.3971414609792C402.8492926333742,295.9894235137475 407.9024690078459,287.50031843388695 411.2325380166576,282.5324635057335C414.5626070254692,277.5646085775801 420.2436002621726,269.675 423.8569674315539,265.0C427.47033460093525,260.325 436.0682125890371,250.85667849467086 442.9633629606691,243.95928554371307C449.8585133323011,237.0618925927552 459.81597559523516,227.95779822486972 465.0910568783004,223.72796472618967C470.3661381613656,219.49813122750962 480.4911381613656,212.19098915095958 487.5910568783004,207.48987122274508C494.69097559523516,202.7887532945306 502.2115129143259,198.42692378325077 504.30336203183526,197.79691675323437C506.836992806512,197.03385732119807 509.0069816486071,196.96778371438552 510.80336203183526,197.5989994017944C512.3180067553965,198.1312182566033 517.1623816979384,202.91955830962567 521.8554771447823,208.5232746888285C526.4509895744126,214.01047360997282 533.125849097498,222.26807112874445 536.6884983071942,226.87349139720993C540.2511475168905,231.47891166567538 545.8286828017384,239.08801093062627 549.0830211624119,243.7826008748786C552.6711823000013,248.95875139396549 554.9874827581161,253.33794741352185 554.9681966281295,254.90910947766866C554.9507047736007,256.3340992649509 554.3882047736007,258.2139957329599 553.7181966281295,259.08665718435543C553.0481884826582,259.95931863575095 551.517176711531,261.19676883305385 550.3159482478467,261.83654651169525C549.1147197841624,262.47632419033664 542.8147197841623,264.8605834188386 536.3159482478467,267.13490035281063C529.817176711531,269.4092172867827 520.0497335321802,273.2363671827522 514.6105189604004,275.63967789940955C509.1713043886208,278.04298861606685 500.6213043886208,282.3272166116163 495.6105189604005,285.1601845561861C490.5997335321802,287.99315250075585 482.2249335788413,293.33116825970995 476.999852397425,297.0224417983064C471.7747712160088,300.7137153369028 463.8997712160088,306.99067866817757 459.499852397425,310.97124920113924C455.0999335788413,314.9518197341009 448.0148834451287,322.09920388187436 443.7552965447305,326.85432508508023C439.4957096443323,331.6094462882861 432.63970219420503,340.48888471675644 428.5197244333366,346.586410481681C424.3997466724682,352.6839362466056 418.1092571060477,363.70893624660556 414.54085873017993,371.086410481681C410.9724603543122,378.46388471675647 405.73333005926065,391.6088268192317 402.8983469633987,400.29739293162595C400.0633638675368,408.9859590440202 397.009371171192,417.00180689363674 396.11169652707696,418.11038815299605C395.12260584288146,419.33186344306273 392.90762751854663,420.2869474849453 390.4897804052521,420.53452129857425zM238.48635364324895,394.0C236.38140585239088,394.0 235.54128200194202,393.19234961288333 234.0654725028898,389.75C233.06333585438563,387.4125 231.9924689959399,383.8158134098685 231.68576837301038,381.7573631330411C231.31208898213768,379.24937851194886 231.5893555607388,377.5535015821184 232.526254528138,376.6166026147191C233.29522253638768,375.84763460646946 236.79075392543066,374.71932119660096 240.2941020593446,374.10923948167806C243.79745019325856,373.4991577667551 250.0019651028708,373.0253989974644 254.08191296959407,373.0564422165876C258.1618608363173,373.08748543571073 263.065344509322,373.64998543571073 264.9785433540489,374.3064422165876C267.29852775410694,375.10247525577955 268.7766222686633,376.4110803218428 269.4164839806824,378.2354951490678C270.21647436858683,380.5164791459451 269.9825138786711,381.38971068047033 268.0083825905325,383.49107714126944C266.4062017800857,385.19652046180124 261.67194237013405,387.30239994537203 253.36302603888103,390.0055819922017C246.61020419997675,392.20251189649076 239.9157016219423,394.0 238.48635364324895,394.0zM329.5200021001782,393.0C327.6233343923063,393.0 326.2302086067934,391.70054913909627 323.42425252656466,387.3141336456067C321.42378991405417,384.1869071506904 317.2648084313141,378.98396273117544 314.18207145380904,375.75203493557353C311.099334476304,372.5201071399717 305.56411107996735,367.642184984793 301.8815750175054,364.91220792406546C298.19903895504336,362.18223086333785 290.41919255055205,357.70009218436786 284.5930274519691,354.9518997485766C274.35564942770765,350.1229454754727 274.0000045247602,349.8468232846286 274.00013477009986,346.72759311447805C274.00022509854466,344.5643279181732 275.6394472706667,340.9416597192909 278.9711048118533,335.74178814299904C281.7165617644716,331.45682686010315 285.0862444729667,327.462196314416 286.49797676813716,326.81896803467055C288.63453402210723,325.8454874025773 289.99323235151167,326.0416824711443 294.77700672638366,328.0144540488755C297.92465302687265,329.3125058949184 303.6596241154626,332.2865193490592 307.52138692325013,334.62337283585504C311.38314973103775,336.9602263226509 317.01239793626934,341.03845295190905 320.0308273793204,343.686098678651C323.0492568223715,346.33374440539296 327.3618459842391,350.525 329.61435885013736,353.0C331.86687171603563,355.475 335.5231484259424,360.2 337.73941820548566,363.5C339.95568798502893,366.8 342.9459747076987,371.8475403214152 344.38449981141855,374.7167562698115C345.8230249151384,377.58597221820787 347.0,380.9950309061886 347.0,382.2924422431021C347.0,383.5898535800155 345.9379299431096,385.6491349587046 344.6398443180214,386.86862308463344C343.3417586929332,388.0881112105623 339.961931750782,389.9665525225816 337.1291177799077,391.04293711134295C334.29630380903336,392.1193217001043 330.8722017531551,393.0 329.5200021001782,393.0zM519.2078742558122,387.20787425581216C514.7045358930371,387.8102403835862 513.6239288191173,387.6239288191173 511.95787425581216,385.95787425581216C510.88104341511547,384.88104341511547 510.0,382.95344131201927 510.0,381.67431402670945C510.0,380.3951867413997 511.0216740418478,378.3888151269655 512.2703867596617,377.2157104390779C513.5190994774757,376.0426057511903 517.6815994774757,373.6572372046024 521.5203867596617,371.9148914466603C525.3591740418478,370.17254568871823 532.55,367.9098290402974 537.5,366.8866322279473C542.45,365.86343541559717 550.3876472169605,365.02036265016585 555.1392160376902,365.0131371936554C562.1005198630462,365.00255151133786 564.22681056444,365.3630748735805 566.0870383333038,366.86939593601005C568.3193730728036,368.67703094328436 568.3589665747618,368.97575203109164 567.2854648007827,375.9111639109944C566.6748659160382,379.85596853243027 565.4259486365584,384.2271678087916 564.5100930686051,385.6249400806862C562.9426427619343,388.0171716212266 562.5412942196572,388.1174395765333 557.6724505634361,387.3331721057018C554.8276027535462,386.8749274475658 546.2,386.5 538.5,386.5C530.8,386.5 522.1185434151155,386.81854341511547 519.2078742558122,387.20787425581216zM494.4071281270627,363.39884077975745C493.0438929204227,363.81323852186466 491.3879032682478,363.3063649157702 489.6571281270627,361.94493699129674C488.1957076571782,360.7953834821474 487.0,358.9579171146588 487.0,357.8616783968778C487.0,356.76543967909674 487.51976099863407,354.8856007461615 488.155024441409,353.68425854591067C488.79028788418395,352.4829163456598 491.32484263911823,349.13177436100756 493.7873683412629,346.23727635779454C496.24989404340755,343.3427783545815 501.2426330447735,338.6262499488337 504.8823438998539,335.75610212279935C508.52205475493423,332.885954296765 515.0593254165633,328.39167993575745 519.4096120368074,325.7688257650048C524.5527868156684,322.66792722722323 528.4602477302427,321.0 530.5815624558873,321.0C533.5784601948252,321.0 534.0943467960088,321.50118671653325 536.92195041908,327.1597223450432C538.614877688586,330.5475696348169 540.0,334.54246951286797 540.0,336.037277629601C540.0,337.532085746334 539.3129907016332,339.32527764541965 538.4733126702961,340.02214851645795C537.633634638959,340.7190193874962 531.4993256945401,343.92973916071566 524.8415150160317,347.1570813458345C518.1837043375235,350.3844235309534 509.0832136358903,355.2159522143409 504.61820234573565,357.89381175336223C500.15319105558103,360.5716712923836 495.55820765717823,363.04893435426146 494.4071281270627,363.39884077975745zM352.40498756211207,325.98468722548296C351.25273072127374,325.99310925146733 349.56339140943334,325.1750342810806 348.6509002024667,324.16674284684586C347.4003553253744,322.7849063117959 346.75996167300775,319.02975149663854 346.0502076400265,308.91674284684586C345.532317937651,301.53753428108064 344.686983686595,294.112165870605 344.1716870821243,292.4159241568999C343.6018797345088,290.540245211191 343.59376818105517,288.6903794653371 344.1509847399466,287.6946887150651C344.6548950562195,286.794250935761 347.38374417145843,285.36958506515606 350.215093884922,284.5287645581652C353.0464435983855,283.6879440511743 357.05100245076244,283.0 359.11411355687073,283.0C362.12044119855665,283.0 363.0106691677618,283.4467377105521 363.59775772524904,285.25C364.0006509117487,286.4875 364.30430668889954,290.875 364.27254834113967,295.0C364.24078999337985,299.125 363.495725321028,305.5470949606557 362.61684906924665,309.2713221347906C361.73797281746533,312.9955493089254 360.0541910616617,317.94554930892537 358.8751118341275,320.2713221347906C357.6960326065933,322.59709496065574 356.2292818508324,324.8306092514673 355.61566571021444,325.23468722548296C355.0020495695965,325.63876519949855 353.55724440295046,325.9762651994985 352.40498756211207,325.98468722548296z"/></svg>