<svg version="1.1" xmlns="http://www.w3.org/2000/svg" width="1024" height="1024">
<path d="M0 0 C337.92 0 675.84 0 1024 0 C1024 337.92 1024 675.84 1024 1024 C686.08 1024 348.16 1024 0 1024 C0 686.08 0 348.16 0 0 Z " fill="#FEFEFE" transform="translate(0,0)"/>
<path d="M0 0 C1.272 0.014 1.272 0.014 2.57 0.027 C28.192 0.708 53.983 10.861 73.5 27.438 C74.236 28.029 74.972 28.621 75.73 29.23 C87.476 39.035 98.356 53.949 99.785 69.551 C100.233 80.047 97.924 88.541 91.312 96.812 C87.369 100.964 82.642 103.956 77.5 106.438 C76.84 106.438 76.18 106.438 75.5 106.438 C75.5 117.327 75.5 128.217 75.5 139.438 C77.48 138.778 79.46 138.118 81.5 137.438 C84.375 137.812 84.375 137.812 86.5 138.438 C86.83 140.087 87.16 141.738 87.5 143.438 C83.77 145.472 81.831 146.438 77.5 146.438 C82.253 158.74 89.798 168.76 98.406 178.621 C101.076 181.852 102.893 184.37 103.25 188.625 C102.468 192.601 101.61 194.076 98.349 196.455 C96.379 197.502 94.579 197.948 92.418 198.477 C89.842 199.423 88.783 199.862 87.559 202.355 C86.971 204.902 86.612 207.403 86.312 210 C86.019 211.911 85.719 213.821 85.414 215.73 C85.267 216.69 85.121 217.65 84.97 218.638 C82.063 235.961 74.993 257.392 61.562 269.375 C57.674 271.994 53.654 274.268 49.5 276.438 C49.838 277.018 50.175 277.598 50.523 278.195 C50.969 278.976 51.415 279.758 51.875 280.562 C52.316 281.328 52.757 282.094 53.211 282.883 C57.541 291.465 57.861 300.684 55.66 309.988 C52.571 318.839 47.734 326.044 39.688 331.062 C36.5 332.438 36.5 332.438 33.5 331.438 C34.008 331.109 34.516 330.78 35.039 330.441 C44.342 324.013 49.076 315.42 51.5 304.438 C52.738 294.96 50.884 286.908 46.5 278.438 C44.956 276.623 44.956 276.623 43.5 275.438 C43.974 276.283 44.449 277.129 44.938 278 C48.96 286.851 49.146 300.38 46.594 309.773 C45.405 312.493 44.088 314.933 42.5 317.438 C42.054 318.185 41.608 318.933 41.148 319.703 C36.935 326.058 31.34 329.562 23.938 331.25 C22.731 331.343 22.731 331.343 21.5 331.438 C21.83 333.418 22.16 335.398 22.5 337.438 C18.282 337.093 15.417 336.575 11.812 334.312 C8.849 332.212 8.849 332.212 6.566 332.641 C4.139 333.577 2.251 334.813 0.125 336.312 C-9.595 342.931 -9.595 342.931 -16.5 342.438 C-15.795 341.875 -15.09 341.313 -14.363 340.734 C-13.418 339.976 -12.474 339.218 -11.5 338.438 C-10.565 337.7 -9.631 336.963 -8.668 336.203 C3.596 325.852 10.387 312.017 11.809 295.949 C12.002 291.17 12.002 291.17 11.5 286.438 C10.209 285.063 8.877 283.725 7.5 282.438 C7.25 278.688 7.25 278.688 7.5 275.438 C9.15 275.438 10.8 275.438 12.5 275.438 C11.77 260.294 9.061 246.766 4.43 232.346 C3.234 228.604 2.094 224.847 0.964 221.084 C0.466 219.428 -0.037 217.772 -0.546 216.119 C-3.093 207.764 -4.875 199.96 -4.812 191.188 C-4.805 189.942 -4.805 189.942 -4.798 188.67 C-4.664 181.605 -3.514 175.216 -1.5 168.438 C-1.108 167.042 -0.717 165.646 -0.328 164.25 C1.73 156.977 3.984 149.829 6.652 142.754 C7.775 139.686 8.659 136.593 9.5 133.438 C0.872 133.678 0.872 133.678 -6.707 137.176 C-7.814 138.552 -8.882 139.959 -9.91 141.395 C-12.443 144.65 -15.804 146.67 -19.5 148.438 C-20.16 148.438 -20.82 148.438 -21.5 148.438 C-21.5 150.418 -21.5 152.398 -21.5 154.438 C-25.281 153.177 -25.485 152.064 -27.312 148.625 C-29.884 144.252 -31.649 141.414 -36.5 139.438 C-42.039 138.72 -46.778 138.686 -51.938 140.938 C-57.775 146.633 -60.004 150.967 -60.125 159.312 C-59.976 167.655 -58.041 173.513 -52.445 179.715 C-45.635 186.231 -39.688 188.215 -30.5 189.438 C-30.402 190.609 -30.304 191.781 -30.203 192.988 C-30.053 194.576 -29.902 196.163 -29.75 197.75 C-29.688 198.516 -29.626 199.283 -29.562 200.072 C-28.455 211.195 -23.507 220.846 -18.614 230.747 C-17.035 233.947 -15.482 237.16 -13.926 240.371 C-13.623 240.994 -13.321 241.618 -13.009 242.26 C-3.047 262.794 5.269 284.883 -0.625 308.09 C-5.677 321.645 -14.181 333.244 -27.5 339.438 C-28.16 339.438 -28.82 339.438 -29.5 339.438 C-29.5 340.098 -29.5 340.757 -29.5 341.438 C-28.688 341.668 -27.876 341.899 -27.039 342.137 C-22.684 343.738 -18.883 345.934 -14.875 348.25 C-2.175 355.374 9.358 361.607 24.328 357.699 C27.118 356.078 27.479 354.883 28.312 351.812 C28.546 350.995 28.779 350.178 29.02 349.336 C29.178 348.709 29.337 348.083 29.5 347.438 C34.456 348.915 37.249 351.761 40.75 355.375 C41.608 356.247 41.608 356.247 42.484 357.136 C46.698 361.473 50.567 366.018 54.324 370.758 C56.62 373.585 59.031 376.26 61.5 378.938 C65.614 383.407 69.471 388.028 73.285 392.754 C76.166 396.244 79.209 399.57 82.258 402.914 C84.545 405.488 86.715 408.13 88.875 410.812 C92.558 415.369 96.432 419.678 100.42 423.963 C103.351 427.131 106.12 430.378 108.812 433.75 C113.671 439.791 118.975 445.375 124.289 451.012 C126.58 453.444 128.823 455.902 131 458.438 C134.4 462.384 137.949 466.189 141.5 470 C142.082 470.626 142.664 471.252 143.264 471.896 C146.123 474.956 149.016 477.964 152 480.902 C154.327 483.209 156.508 485.574 158.629 488.07 C161.81 491.757 165.194 495.194 168.652 498.617 C169.201 499.161 169.75 499.704 170.316 500.264 C172.608 502.528 174.904 504.789 177.203 507.045 C178.899 508.711 180.589 510.382 182.277 512.055 C183.065 512.822 183.065 512.822 183.868 513.604 C185.117 514.845 186.314 516.137 187.5 517.438 C187.5 518.097 187.5 518.758 187.5 519.438 C186.614 519.535 185.729 519.633 184.816 519.734 C172.099 521.269 159.599 523.794 147.48 528.02 C145.13 528.516 143.746 528.249 141.5 527.438 C140.634 526.695 140.634 526.695 139.75 525.938 C137.43 524.076 137.43 524.076 133.75 524.562 C131.637 524.371 131.637 524.371 129.5 523.438 C126.753 519.932 124.689 516.084 122.53 512.204 C116.624 502.072 108.222 493.218 100.5 484.438 C99.392 483.177 99.392 483.177 98.262 481.891 C92.393 475.304 86.326 468.901 80.285 462.473 C71.914 453.56 63.649 444.554 55.5 435.438 C58.126 438.772 60.836 441.982 63.688 445.125 C64.479 446 65.27 446.876 66.086 447.777 C67.611 449.458 69.137 451.138 70.664 452.816 C75.535 458.193 80.278 463.664 84.981 469.188 C88.15 472.898 91.383 476.534 94.688 480.125 C126.5 514.922 126.5 514.922 126.5 525.438 C125.181 526.463 123.818 527.433 122.438 528.375 C112.931 535.643 107.801 546.846 105.5 558.438 C104.435 566.832 105.301 573.688 108.5 581.438 C108.442 580.324 108.384 579.21 108.324 578.062 C107.767 562.616 110.476 548.783 120.5 536.438 C128.281 528.53 128.281 528.53 133.5 528.312 C136.5 528.438 136.5 528.438 138.5 529.438 C138.5 530.758 138.5 532.077 138.5 533.438 C139.446 533.159 139.446 533.159 140.411 532.874 C163.853 526.052 187.154 521 211.625 520.938 C212.934 520.931 214.243 520.925 215.592 520.918 C229.549 521.104 242.001 524.59 254.062 531.5 C254.741 531.885 255.419 532.27 256.118 532.666 C274.06 542.998 274.06 542.998 279.5 548.438 C279.625 552.063 279.625 552.063 279.5 555.438 C280.141 555.559 280.781 555.68 281.441 555.805 C282.739 556.056 282.739 556.056 284.062 556.312 C284.909 556.475 285.756 556.637 286.629 556.805 C289.5 557.438 289.5 557.438 292.586 558.516 C298.744 560.319 305.449 559.437 311.783 559.184 C317.983 559.052 321.868 559.087 326.5 563.438 C326.5 564.097 326.5 564.758 326.5 565.438 C327.267 565.207 328.034 564.976 328.824 564.738 C367.42 553.397 367.42 553.397 375.5 557.438 C377.395 557.544 379.291 557.622 381.188 557.688 C393.378 558.563 404.115 563.166 414.5 569.438 C415.426 569.992 416.351 570.546 417.305 571.117 C418.029 571.553 418.754 571.989 419.5 572.438 C419.613 571.726 419.726 571.014 419.843 570.28 C420.55 567.22 421.632 564.773 423.02 561.957 C423.541 560.89 424.062 559.823 424.599 558.723 C425.447 557.004 425.447 557.004 426.312 555.25 C427.515 552.788 428.713 550.324 429.91 547.859 C430.214 547.234 430.519 546.608 430.832 545.964 C433.72 540.013 436.497 534.014 439.25 528 C444.015 517.613 448.863 507.268 453.75 496.938 C454.111 496.174 454.472 495.411 454.844 494.624 C456.312 491.522 457.78 488.419 459.248 485.316 C462.663 478.099 466.061 470.874 469.457 463.648 C475.825 450.101 482.223 436.567 488.636 423.041 C493.786 412.178 498.922 401.308 504.037 390.428 C505.047 388.282 506.059 386.138 507.072 383.993 C509.85 378.105 512.616 372.213 515.285 366.273 C515.69 365.384 516.095 364.495 516.511 363.579 C517.217 362.025 517.91 360.466 518.588 358.9 C521.31 352.942 525.318 348.827 531.5 346.438 C534.073 346.237 536.538 346.144 539.111 346.147 C539.872 346.14 540.634 346.134 541.418 346.127 C543.933 346.108 546.447 346.104 548.961 346.102 C550.712 346.095 552.463 346.088 554.214 346.081 C557.884 346.069 561.554 346.066 565.225 346.067 C569.921 346.067 574.617 346.04 579.313 346.005 C582.93 345.983 586.547 345.979 590.164 345.98 C591.895 345.978 593.626 345.969 595.357 345.953 C597.782 345.934 600.206 345.94 602.63 345.952 C603.341 345.94 604.052 345.929 604.784 345.918 C610.808 345.993 614.33 348.267 618.5 352.438 C619.236 357.965 617.281 361.85 614.941 366.691 C614.566 367.492 614.19 368.293 613.803 369.119 C612.567 371.751 611.315 374.375 610.062 377 C609.195 378.841 608.328 380.683 607.462 382.526 C605.683 386.313 603.899 390.098 602.113 393.881 C598.581 401.376 595.128 408.907 591.682 416.441 C589.932 420.266 588.177 424.088 586.422 427.91 C586.087 428.64 585.752 429.37 585.407 430.121 C582.252 436.987 579.065 443.838 575.875 450.688 C571.211 460.703 566.622 470.75 562.062 480.812 C557.053 491.867 551.982 502.888 546.837 513.88 C541.714 524.822 536.627 535.78 531.562 546.75 C531.181 547.576 530.799 548.403 530.406 549.254 C525.147 560.651 519.931 572.067 514.75 583.5 C509.847 594.318 504.894 605.111 499.875 615.875 C499.586 616.495 499.298 617.115 499.001 617.753 C497.183 621.656 495.347 625.549 493.5 629.438 C493.038 630.425 492.575 631.413 492.099 632.43 C491.45 633.782 491.45 633.782 490.789 635.16 C490.231 636.334 490.231 636.334 489.663 637.531 C488.5 639.438 488.5 639.438 485.5 641.438 C547.21 641.768 608.92 642.097 672.5 642.438 C673.5 646.438 673.5 646.438 672.5 648.438 C420.38 648.438 168.26 648.438 -91.5 648.438 C-93.15 643.817 -94.8 639.197 -96.5 634.438 C-97.67 631.551 -98.847 628.71 -100.125 625.875 C-100.459 625.133 -100.792 624.391 -101.136 623.627 C-110.956 602.134 -122.758 582.005 -137.297 563.367 C-137.8 562.717 -138.303 562.068 -138.822 561.398 C-140.483 559.367 -140.483 559.367 -142.604 557.573 C-150.206 550.515 -149.974 542.345 -150.375 532.625 C-150.472 530.901 -150.573 529.177 -150.677 527.453 C-150.881 524.015 -151.067 520.577 -151.24 517.137 C-151.445 513.216 -151.746 509.312 -152.113 505.402 C-153.518 490.25 -153.71 475.145 -153.75 459.938 C-153.755 458.921 -153.761 457.905 -153.766 456.857 C-153.902 422.953 -151.902 378.048 -127.109 351.891 C-125.072 350.051 -122.97 348.635 -120.5 347.438 C-121.496 347.291 -121.496 347.291 -122.512 347.141 C-127.845 346.237 -131.599 345.464 -135.5 341.438 C-135.83 340.777 -136.16 340.118 -136.5 339.438 C-136.717 344.295 -136.717 344.295 -135.5 348.938 C-134.202 352.181 -134.364 354.978 -134.5 358.438 C-135.803 359.245 -137.118 360.032 -138.438 360.812 C-139.168 361.253 -139.899 361.694 -140.652 362.148 C-151.523 367.069 -166.912 367.689 -178.062 363.5 C-193.272 355.885 -200.78 341.831 -206.273 326.457 C-212.061 308.48 -211.696 287.232 -205.5 269.438 C-204.974 267.827 -204.974 267.827 -204.438 266.184 C-196.985 245.095 -183.641 224.939 -167.5 209.438 C-185.856 220.345 -196.959 238.39 -205.5 257.438 C-205.982 258.502 -206.464 259.567 -206.961 260.664 C-217.575 286.074 -217.854 315.367 -208.172 341.047 C-207.5 343.438 -207.5 343.438 -208.5 346.438 C-213.49 339.341 -217.899 332.348 -220.938 324.188 C-221.289 323.252 -221.289 323.252 -221.647 322.297 C-230.756 296.482 -225.497 266.834 -214.5 242.438 C-206.564 225.965 -195.89 211.346 -184.637 197.021 C-165.664 172.848 -153.743 148.007 -146.75 118.062 C-137.592 80.553 -121.78 40.061 -87.261 19.084 C-80.298 15.046 -73.07 12.114 -65.5 9.438 C-64.103 8.877 -62.707 8.315 -61.312 7.75 C-51.535 4.178 -41.603 4.086 -31.309 3.959 C-24.617 3.797 -18.75 2.881 -12.3 1.116 C-8.174 0.116 -4.231 -0.056 0 0 Z " fill="#020202" transform="translate(316.5,286.5625)"/>
<path d="M0 0 C0.778 -0.002 1.556 -0.005 2.357 -0.007 C4.918 -0.009 7.477 0.025 10.038 0.06 C11.82 0.067 13.602 0.072 15.383 0.074 C19.112 0.085 22.839 0.112 26.567 0.151 C31.353 0.202 36.138 0.227 40.923 0.242 C45.482 0.257 50.042 0.282 54.601 0.31 C55.474 0.315 56.347 0.32 57.246 0.325 C59.707 0.341 62.168 0.365 64.629 0.391 C65.362 0.395 66.095 0.399 66.85 0.404 C71.89 0.468 71.89 0.468 74.12 1.583 C73.541 6.956 71.688 11.166 69.394 15.978 C69.014 16.789 68.635 17.601 68.244 18.437 C67.427 20.182 66.607 21.926 65.784 23.669 C64.033 27.374 62.299 31.086 60.564 34.798 C59.68 36.688 58.796 38.577 57.911 40.466 C54.062 48.685 50.296 56.939 46.558 65.208 C38.847 82.24 31.004 99.21 23.156 116.179 C20.853 121.16 18.555 126.143 16.258 131.127 C11.871 140.64 7.471 150.146 3.058 159.646 C2.531 160.78 2.005 161.913 1.462 163.082 C-1.046 168.484 -3.555 173.886 -6.066 179.288 C-8.464 184.448 -10.86 189.609 -13.255 194.771 C-13.662 195.649 -14.069 196.527 -14.489 197.431 C-19.594 208.438 -24.658 219.462 -29.66 230.516 C-32.388 236.544 -35.131 242.565 -37.88 248.583 C-38.225 249.341 -38.571 250.098 -38.927 250.879 C-41.105 255.646 -43.296 260.408 -45.504 265.162 C-46.206 266.679 -46.905 268.197 -47.6 269.718 C-48.562 271.821 -49.537 273.918 -50.516 276.013 C-50.798 276.637 -51.08 277.26 -51.37 277.902 C-53.024 281.398 -54.482 283.666 -57.88 285.583 C-60.721 286.254 -63.44 286.783 -66.317 287.208 C-67.049 287.33 -67.78 287.451 -68.534 287.576 C-82.338 289.752 -96.207 289.827 -110.148 289.879 C-112.36 289.89 -114.572 289.911 -116.784 289.94 C-120.005 289.983 -123.225 289.999 -126.446 290.009 C-127.435 290.027 -128.423 290.044 -129.442 290.062 C-136.085 290.041 -136.085 290.041 -139.532 288.057 C-141.443 284.55 -141.474 281.436 -140.88 277.583 C-139.677 274.21 -139.677 274.21 -137.985 270.865 C-137.682 270.254 -137.379 269.643 -137.067 269.013 C-136.418 267.708 -135.762 266.406 -135.1 265.107 C-133.689 262.342 -132.313 259.56 -130.935 256.779 C-130.237 255.37 -129.536 253.962 -128.834 252.555 C-125.908 246.684 -123.142 240.749 -120.442 234.771 C-116.103 225.213 -111.668 215.703 -107.192 206.208 C-106.853 205.49 -106.515 204.771 -106.166 204.031 C-104.431 200.352 -102.696 196.673 -100.96 192.995 C-97.926 186.564 -94.9 180.13 -91.874 173.697 C-90.879 171.581 -89.883 169.466 -88.887 167.351 C-85.856 160.912 -82.826 154.472 -79.803 148.029 C-73.325 134.226 -66.832 120.434 -60.192 106.708 C-55.399 96.8 -50.726 86.842 -46.112 76.849 C-40.99 65.775 -35.761 54.753 -30.516 43.738 C-26.834 36.005 -23.156 28.277 -19.684 20.447 C-19.004 18.913 -19.004 18.913 -18.31 17.349 C-17.516 15.541 -16.731 13.729 -15.959 11.912 C-15.617 11.132 -15.275 10.352 -14.923 9.548 C-14.644 8.895 -14.366 8.241 -14.08 7.568 C-10.415 1.509 -6.885 -0.155 0 0 Z " fill="#FEFEFE" transform="translate(854.879638671875,639.41650390625)"/>
<path d="M0 0 C0.907 -0.011 1.814 -0.022 2.748 -0.033 C12.635 0.073 21.688 3.615 28.812 10.562 C34.194 17.176 38.081 23.045 38.188 31.75 C38.216 32.795 38.244 33.841 38.273 34.918 C37.185 43.521 32.522 51.416 28.75 59.125 C17.003 83.281 17.003 83.281 7.812 108.477 C6.812 111.563 6.812 111.563 5.309 115.043 C3.871 118.424 2.834 121.707 1.875 125.25 C0.665 129.619 -0.621 133.912 -2.125 138.188 C-3.406 141.906 -4.469 145.618 -5.375 149.441 C-5.583 150.315 -5.79 151.189 -6.004 152.089 C-6.406 153.813 -6.797 155.54 -7.174 157.27 C-8.83 164.388 -11.618 171.314 -16.812 176.625 C-21.569 179.355 -25.821 179.436 -31.188 178.562 C-36.865 176.571 -41.204 173.603 -45.938 169.938 C-46.988 169.135 -46.988 169.135 -48.06 168.317 C-57.211 161.294 -65.964 153.959 -74.418 146.117 C-76.647 144.061 -78.895 142.046 -81.188 140.062 C-88.496 133.715 -95.668 127.196 -102.44 120.278 C-104.186 118.564 -105.995 116.975 -107.855 115.387 C-112.343 111.482 -116.557 107.341 -120.75 103.125 C-121.824 102.057 -121.824 102.057 -122.92 100.967 C-126.977 96.902 -130.851 92.738 -134.599 88.387 C-136.804 85.854 -139.126 83.436 -141.438 81 C-145.724 76.398 -149.591 71.569 -153.312 66.5 C-153.786 65.857 -154.259 65.213 -154.747 64.551 C-158.176 59.793 -159.863 55.949 -159.777 50.094 C-157.662 41.015 -146.598 34.245 -139.188 29.562 C-113.637 14.142 -81.508 5.081 -51.695 5.641 C-50.936 5.653 -50.178 5.666 -49.396 5.679 C-46.245 5.733 -43.095 5.789 -39.945 5.885 C-30.338 6.164 -23.09 5.665 -14.146 1.707 C-9.429 -0.117 -5 -0.133 0 0 Z " fill="#020202" transform="translate(873.1875,361.4375)"/>
<path d="M0 0 C0.625 0.241 1.251 0.483 1.895 0.731 C31.367 12.265 55.989 33.958 75 59 C75.745 59.928 76.49 60.856 77.258 61.812 C123 119.468 123 119.468 123 146 C77.13 146 31.26 146 -16 146 C-21.383 135.337 -26.766 124.674 -32.312 113.688 C-33.987 110.383 -35.662 107.079 -37.388 103.675 C-44.117 90.327 -50.71 76.966 -56.418 63.145 C-56.85 62.112 -57.281 61.079 -57.726 60.015 C-63.507 45.545 -67.033 29.925 -61 15 C-59.295 12.013 -57.339 9.516 -55 7 C-54.497 6.456 -53.995 5.912 -53.477 5.352 C-39.516 -8.064 -16.89 -6.662 0 0 Z " fill="#020202" transform="translate(94,789)"/>
<path d="M0 0 C0.004 1.053 0.008 2.106 0.012 3.19 C0.034 7.159 0.089 11.126 0.153 15.094 C0.176 16.8 0.19 18.505 0.196 20.211 C0.247 33.71 1.842 44.828 9.812 56.188 C10.496 57.165 11.179 58.142 11.883 59.148 C14.559 62.753 17.332 66.263 20.168 69.742 C27 78.162 27 78.162 27 82 C21.286 85.407 17.496 87.151 10.75 87.062 C9.412 87.049 9.412 87.049 8.047 87.035 C7.371 87.024 6.696 87.012 6 87 C6.33 88.32 6.66 89.64 7 91 C8.98 91.33 10.96 91.66 13 92 C13.325 97.444 12.147 102.066 10.688 107.25 C10.474 108.065 10.261 108.879 10.041 109.719 C9.825 110.497 9.609 111.276 9.387 112.078 C9.193 112.784 8.999 113.489 8.8 114.216 C8 116 8 116 5 118 C-2.25 119.407 -7.442 117.224 -13.652 113.605 C-16 112 -16 112 -17.648 110.312 C-19.009 108.709 -19.009 108.709 -21.688 108.812 C-22.451 108.874 -23.214 108.936 -24 109 C-24 110.32 -24 111.64 -24 113 C-22.577 113.309 -22.577 113.309 -21.125 113.625 C-17.745 114.56 -15.229 116.068 -12.312 118 C-6.798 121.484 -1.416 122.361 5 123 C3.028 135.06 -3.313 149.851 -13 157.5 C-21.303 163.073 -29.012 164.158 -38.812 164.062 C-39.696 164.058 -40.58 164.053 -41.49 164.049 C-43.66 164.037 -45.83 164.019 -48 164 C-48.039 162.347 -48.039 162.347 -48.078 160.66 C-48.738 140.625 -54.858 122.64 -61.124 103.755 C-65.708 89.344 -63.9 72.424 -57 59 C-54.343 55.058 -50.92 51.878 -47.521 48.581 C-44.647 45.593 -42.217 42.263 -39.75 38.938 C-39.242 38.261 -38.733 37.584 -38.209 36.886 C-35.25 32.886 -32.7 28.827 -30.25 24.5 C-27.631 20.212 -27.631 20.212 -24.906 19.297 C-21.725 19.228 -18.999 20 -16 21 C-14.105 21.069 -12.208 21.085 -10.312 21.062 C-9.319 21.053 -8.325 21.044 -7.301 21.035 C-6.542 21.024 -5.782 21.012 -5 21 C-5.788 16.253 -5.788 16.253 -8.75 12.812 C-11.296 11.893 -13.554 11.588 -16.25 11.375 C-17.142 11.3 -18.034 11.225 -18.953 11.148 C-19.966 11.075 -19.966 11.075 -21 11 C-15.98 5.143 -7.897 0 0 0 Z " fill="#FEFEFE" transform="translate(387,395)"/>
<path d="M0 0 C0.972 -0.007 1.943 -0.014 2.944 -0.022 C4.014 -0.024 5.083 -0.027 6.185 -0.03 C7.871 -0.04 7.871 -0.04 9.591 -0.05 C13.322 -0.07 17.053 -0.081 20.784 -0.091 C22.056 -0.095 23.327 -0.099 24.638 -0.103 C30.673 -0.122 36.708 -0.137 42.743 -0.145 C49.708 -0.155 56.674 -0.181 63.639 -0.222 C69.673 -0.255 75.706 -0.267 81.74 -0.271 C84.306 -0.276 86.873 -0.288 89.439 -0.306 C93.028 -0.331 96.616 -0.33 100.205 -0.323 C101.269 -0.336 102.332 -0.348 103.428 -0.362 C110.635 -0.311 110.635 -0.311 114.526 2.052 C117.898 5.844 117.565 9.183 117.592 14.042 C117.598 14.826 117.604 15.61 117.61 16.419 C117.619 18.08 117.626 19.742 117.63 21.404 C117.639 23.939 117.67 26.474 117.702 29.008 C117.708 30.624 117.714 32.239 117.717 33.854 C117.73 34.61 117.742 35.365 117.755 36.143 C117.731 41.916 116.429 45.107 112.389 49.147 C110.314 49.41 110.314 49.41 107.703 49.428 C106.714 49.439 105.726 49.451 104.708 49.463 C103.619 49.465 102.531 49.467 101.41 49.469 C100.266 49.479 99.123 49.489 97.945 49.5 C94.149 49.529 90.353 49.542 86.557 49.553 C83.927 49.565 81.296 49.576 78.665 49.588 C73.849 49.607 69.033 49.619 64.218 49.625 C57.131 49.634 50.044 49.669 42.958 49.727 C36.819 49.775 30.682 49.791 24.543 49.794 C21.932 49.8 19.321 49.816 16.71 49.843 C13.058 49.877 9.409 49.873 5.757 49.86 C4.675 49.878 3.593 49.897 2.478 49.916 C-4.619 49.837 -4.619 49.837 -7.399 47.904 C-9.746 45.27 -11.236 42.692 -11.242 39.149 C-11.254 38.425 -11.267 37.701 -11.28 36.954 C-11.266 36.192 -11.253 35.429 -11.24 34.643 C-11.242 33.842 -11.244 33.041 -11.247 32.216 C-11.246 30.531 -11.233 28.846 -11.208 27.161 C-11.173 24.588 -11.187 22.019 -11.206 19.446 C-11.199 17.803 -11.19 16.161 -11.177 14.518 C-11.182 13.754 -11.187 12.989 -11.192 12.201 C-11.083 7.239 -10.171 4.622 -6.611 1.147 C-4.204 -0.056 -2.689 0.014 0 0 Z " fill="#020202" transform="translate(892.6106719970703,876.8528289794922)"/>
<path d="M0 0 C3.798 2.639 3.798 2.639 5.152 4.352 C5.152 5.672 5.152 6.992 5.152 8.352 C1.359 7.744 -1.659 6.608 -5.098 4.914 C-14.192 0.713 -25.011 -1.927 -34.848 1.352 C-34.848 2.012 -34.848 2.672 -34.848 3.352 C-33.711 3.343 -32.574 3.334 -31.402 3.324 C-18.464 3.479 -9.192 6.206 1.152 14.352 C0.277 19.102 0.277 19.102 -0.848 21.352 C-5.618 20.862 -9.341 19.355 -13.602 17.289 C-18.534 15.23 -23.442 15.169 -28.723 15.164 C-29.405 15.152 -30.086 15.14 -30.789 15.127 C-35.498 15.113 -39.409 15.734 -43.848 17.352 C-44.178 18.012 -44.508 18.672 -44.848 19.352 C-44.153 19.315 -43.459 19.278 -42.743 19.24 C-17.111 18.064 -17.111 18.064 -7.848 26.352 C-6.831 27.335 -5.824 28.328 -4.848 29.352 C-6.723 35.102 -6.723 35.102 -7.848 37.352 C-11.872 35.866 -15.443 33.921 -19.16 31.789 C-24.259 28.996 -28.054 27.465 -33.848 27.352 C-31.54 29.905 -29.181 31.355 -26.16 32.977 C-20.604 36.207 -16.82 40.358 -12.848 45.352 C-13.508 46.672 -14.168 47.992 -14.848 49.352 C-18.733 48.355 -21.669 46.886 -24.91 44.602 C-31.81 39.854 -40.199 34.314 -48.848 35.352 C-51.547 36.266 -54.088 37.443 -56.66 38.664 C-58.087 39.312 -59.516 39.958 -60.945 40.602 C-61.624 40.908 -62.302 41.215 -63 41.531 C-74.61 46.687 -86.702 47.688 -99.285 47.602 C-100.41 47.609 -101.535 47.617 -102.693 47.625 C-110.573 47.607 -118.098 46.755 -125.848 45.352 C-124.538 31.551 -122.352 17.983 -119.848 4.352 C-118.852 4.265 -117.857 4.179 -116.832 4.09 C-98.709 2.34 -81.571 -2.922 -64.176 -8.098 C-41.955 -14.611 -20.065 -11.615 0 0 Z " fill="#FEFEFE" transform="translate(725.84765625,859.6484375)"/>
<path d="M0 0 C2.9 1.658 4.763 3.865 6.961 6.371 C7.807 7.325 8.652 8.279 9.523 9.262 C15.961 16.813 15.961 16.813 15.961 19.121 C16.868 18.605 17.776 18.09 18.711 17.559 C21.961 16.121 21.961 16.121 24.211 16.309 C25.961 17.121 25.961 17.121 27.961 19.121 C27.734 22.078 27.349 23.671 25.398 25.934 C24.924 26.325 24.45 26.717 23.961 27.121 C25.472 31.953 28.22 35.046 31.523 38.746 C32.62 39.998 33.715 41.25 34.809 42.504 C35.348 43.119 35.887 43.734 36.442 44.368 C38.501 46.744 40.484 49.177 42.461 51.621 C45.893 55.849 49.406 59.996 52.961 64.121 C57.261 69.111 61.466 74.163 65.617 79.277 C68.354 82.598 71.152 85.862 73.961 89.121 C78.261 94.111 82.466 99.163 86.617 104.277 C89.354 107.598 92.152 110.861 94.961 114.121 C100.06 120.042 105.085 126.014 109.961 132.121 C110.488 132.726 111.015 133.331 111.558 133.954 C113.251 136.569 113.31 138.015 113.254 141.105 C113.244 142.04 113.235 142.975 113.225 143.938 C113.199 144.906 113.174 145.874 113.148 146.871 C113.135 147.855 113.121 148.838 113.107 149.852 C113.072 152.275 113.023 154.698 112.961 157.121 C108.483 153.625 105.1 150.034 101.711 145.496 C97.501 139.995 93.064 134.837 88.352 129.754 C85.218 126.303 82.303 122.697 79.375 119.07 C76.622 115.707 73.799 112.412 70.961 109.121 C66.641 104.108 62.41 99.036 58.238 93.898 C55.679 90.777 53.075 87.697 50.461 84.621 C47.106 80.675 43.789 76.705 40.523 72.684 C36.123 67.28 31.592 61.996 27.047 56.715 C22.315 51.214 17.64 45.666 12.961 40.121 C9.711 41.209 9.711 41.209 6.961 43.121 C4.523 43.371 4.523 43.371 1.961 43.121 C1.301 42.131 0.641 41.141 -0.039 40.121 C0.19 39.028 0.42 37.935 0.656 36.809 C1.365 33.007 1.365 33.007 -1.172 30.059 C-2.151 29.061 -3.149 28.082 -4.164 27.121 C-5.186 26.087 -6.206 25.051 -7.223 24.012 C-7.712 23.519 -8.202 23.026 -8.707 22.518 C-11.165 19.941 -13.085 17.086 -15.039 14.121 C-13.445 10.116 -10.794 7.708 -7.664 4.809 C-6.229 3.453 -6.229 3.453 -4.766 2.07 C-2.039 0.121 -2.039 0.121 0 0 Z " fill="#020202" transform="translate(911.0390625,435.87890625)"/>
<path d="M0 0 C0.33 0 0.66 0 1 0 C2.753 33.478 2.753 33.478 -6.398 49.045 C-9.643 55.03 -12.231 61.341 -14.945 67.58 C-16.683 71.567 -18.448 75.544 -20.215 79.52 C-20.551 80.276 -20.887 81.033 -21.233 81.813 C-23.92 87.851 -26.708 93.834 -29.574 99.789 C-33.181 107.309 -36.619 114.905 -40.062 122.5 C-40.705 123.917 -41.348 125.335 -41.991 126.752 C-42.98 128.931 -43.968 131.11 -44.956 133.289 C-54.779 154.952 -64.618 176.597 -75 198 C-79.29 198 -83.58 198 -88 198 C-87.528 191.733 -86.013 187.199 -83.188 181.625 C-82.367 179.95 -81.548 178.274 -80.73 176.598 C-80.07 175.252 -80.07 175.252 -79.396 173.879 C-76.857 168.642 -74.433 163.351 -72 158.062 C-71.484 156.944 -70.969 155.825 -70.438 154.673 C-67.132 147.49 -63.864 140.292 -60.629 133.077 C-57.09 125.186 -53.516 117.31 -49.938 109.438 C-49.62 108.739 -49.303 108.041 -48.975 107.321 C-45.305 99.247 -41.626 91.177 -37.934 83.113 C-37.43 82.014 -37.43 82.014 -36.917 80.893 C-36.581 80.161 -36.246 79.429 -35.901 78.674 C-28.183 61.82 -20.56 44.926 -13 28 C-11.315 24.228 -9.627 20.457 -7.938 16.688 C-7.591 15.912 -7.245 15.136 -6.889 14.336 C-4.715 9.491 -2.403 4.736 0 0 Z " fill="#020202" transform="translate(1023,674)"/>
<path d="M0 0 C0.99 1.485 0.99 1.485 2 3 C-0.569 1.985 -3.121 0.948 -5.656 -0.148 C-6.595 -0.553 -7.533 -0.958 -8.5 -1.375 C-9.418 -1.775 -10.336 -2.174 -11.281 -2.586 C-21.71 -6.551 -30.799 -8.668 -42 -8.562 C-43.168 -8.586 -44.336 -8.61 -45.539 -8.635 C-60.44 -8.61 -72.33 -2.465 -83.062 7.5 C-95.66 20.626 -100.672 36.616 -100.403 54.563 C-100.156 61.011 -99.111 66.885 -97 73 C-96.609 74.168 -96.219 75.336 -95.816 76.539 C-90.643 91.094 -81.566 102.924 -71.418 114.395 C-70.399 115.549 -69.386 116.708 -68.377 117.871 C-64.166 122.722 -59.844 127.452 -55.438 132.125 C-54.749 132.857 -54.06 133.589 -53.35 134.344 C-48.222 139.768 -42.978 145.061 -37.671 150.31 C-34.139 153.816 -30.788 157.411 -27.57 161.211 C-25.795 163.233 -23.917 165.112 -22 167 C-18.876 170.082 -15.973 173.275 -13.113 176.602 C-10.303 179.791 -7.401 182.893 -4.5 186 C-0.524 190.261 3.396 194.551 7.211 198.957 C14.814 207.639 22.784 215.899 31 224 C33.667 226.654 36.318 229.322 38.945 232.016 C45.625 238.832 52.457 245.13 60 251 C61.017 251.822 62.034 252.645 63.082 253.492 C69.787 258.861 76.649 263.308 84.199 267.406 C87 269 87 269 89 271 C80.022 272.227 75.061 269.284 68 264 C66.944 263.228 65.889 262.456 64.801 261.66 C58.46 256.949 52.509 251.912 46.73 246.52 C44.63 244.581 42.504 242.712 40.336 240.852 C35.14 236.321 30.3 231.446 25.438 226.562 C24.077 225.208 24.077 225.208 22.689 223.826 C18.173 219.303 13.791 214.729 9.629 209.879 C6.844 206.667 3.915 203.593 1 200.5 C-6.321 192.698 -6.321 192.698 -9.5 189 C-17.452 179.779 -25.889 170.924 -34.621 162.441 C-36.585 160.426 -38.42 158.377 -40.254 156.246 C-44.128 151.78 -48.284 147.641 -52.5 143.5 C-57.353 138.734 -62.045 133.919 -66.481 128.76 C-68.328 126.62 -70.258 124.565 -72.188 122.5 C-82.492 111.019 -90.893 98.669 -98 85 C-98.441 84.206 -98.882 83.412 -99.336 82.594 C-106.564 68.464 -107.572 47.014 -103.102 31.93 C-96.328 13.916 -85.216 -0.454 -67.449 -8.523 C-44.798 -18.22 -19.96 -13.514 0 0 Z " fill="#ECECEC" transform="translate(314,659)"/>
<path d="M0 0 C1.199 -0.004 2.398 -0.008 3.633 -0.012 C4.95 -0.002 6.267 0.009 7.624 0.02 C9.024 0.021 10.423 0.021 11.822 0.019 C15.624 0.018 19.425 0.036 23.226 0.057 C27.198 0.075 31.17 0.077 35.142 0.081 C42.664 0.09 50.186 0.115 57.709 0.145 C66.272 0.178 74.836 0.195 83.399 0.21 C101.015 0.241 118.632 0.294 136.248 0.361 C138.248 6.111 138.248 6.111 138.248 8.361 C90.068 8.361 41.888 8.361 -7.752 8.361 C-8.752 3.361 -8.752 3.361 -7.674 1.571 C-5.019 -0.101 -3.132 -0.008 0 0 Z " fill="#F5F5F5" transform="translate(571.7516326904297,920.6392364501953)"/>
<path d="M0 0 C0 0.33 0 0.66 0 1 C-1.101 1.022 -1.101 1.022 -2.225 1.044 C-33.076 1.728 -60.359 6.768 -84 28 C-84.539 28.437 -85.077 28.873 -85.632 29.323 C-90.25 33.097 -93.865 37.237 -97.438 42 C-98.002 42.749 -98.566 43.498 -99.147 44.27 C-117.619 69.201 -124.953 98.325 -131.484 128.141 C-134.637 142.456 -134.637 142.456 -137 146 C-137.327 137.405 -136.377 129.278 -134.938 120.812 C-134.827 120.162 -134.717 119.511 -134.604 118.84 C-127.912 79.758 -111.721 42.266 -80 17 C-75.801 14.064 -71.482 11.478 -67 9 C-66.034 8.456 -65.069 7.912 -64.074 7.352 C-58.491 4.375 -52.824 2.112 -46.812 0.188 C-46.171 -0.02 -45.53 -0.227 -44.87 -0.44 C-31.535 -4.479 -12.889 -5.698 0 0 Z " fill="#111112" transform="translate(297,287)"/>
<path d="M0 0 C4.9 4.101 9.469 8.374 13.938 12.938 C18.122 17.171 22.331 21.254 26.879 25.098 C30.475 28.323 33.821 31.802 37.216 35.236 C40.701 38.744 44.271 42.062 48.043 45.262 C51.369 48.216 54.437 51.43 57.562 54.594 C59.65 56.654 61.772 58.595 64 60.5 C67.154 63.196 70.084 66.048 73 69 C76.425 72.461 79.916 75.73 83.609 78.898 C92.027 86.299 100.136 94.06 108.008 102.035 C112.396 106.363 117.04 110.343 122 114 C121.67 114.66 121.34 115.32 121 116 C103.257 104.658 87.315 90.982 71.914 76.668 C69.675 74.618 67.416 72.609 65.125 70.617 C53.773 60.716 43.036 50.134 32.375 39.5 C31.451 38.581 30.527 37.662 29.576 36.715 C24.51 31.638 19.621 26.485 15 21 C14.431 20.327 13.862 19.655 13.276 18.961 C11.567 16.923 9.875 14.87 8.188 12.812 C7.616 12.127 7.044 11.442 6.455 10.736 C3.642 7.302 1.316 4.318 0 0 Z " fill="#ECECEC" transform="translate(721,419)"/>
<path d="M0 0 C0.33 0 0.66 0 1 0 C1.693 5.208 2.202 10.364 2.5 15.613 C2.541 16.308 2.581 17.003 2.623 17.72 C2.751 19.917 2.876 22.115 3 24.312 C3.938 42.527 3.938 42.527 6.5 60.562 C10.274 80.197 11.778 102.683 6 122 C5.71 122.973 5.42 123.946 5.121 124.949 C1.676 135.285 -3.2 145.235 -12 152 C-14.746 153.215 -14.746 153.215 -17 154 C-16.175 153.01 -15.35 152.02 -14.5 151 C-4.074 137.016 2.115 119.696 2.133 102.246 C2.134 100.978 2.135 99.711 2.137 98.404 C2.131 96.441 2.131 96.441 2.125 94.438 C2.129 93.156 2.133 91.874 2.137 90.553 C2.126 79.488 1.862 68.538 -0.457 57.695 C-2.602 47.046 -3.199 36.594 -3.25 25.75 C-3.259 24.674 -3.268 23.597 -3.278 22.488 C-3.204 3.204 -3.204 3.204 0 0 Z " fill="#ECECEC" transform="translate(267,476)"/>
<path d="M0 0 C1.238 0.009 2.476 0.018 3.752 0.027 C6.772 0.051 9.792 0.083 12.812 0.125 C13.143 0.785 13.472 1.445 13.812 2.125 C10.725 3.154 8.492 3.279 5.254 3.336 C3.59 3.378 3.59 3.378 1.893 3.422 C-0.417 3.473 -2.727 3.518 -5.037 3.555 C-12.801 3.769 -19.736 4.972 -27.188 7.125 C-28.044 7.347 -28.9 7.57 -29.782 7.799 C-55.864 14.575 -76.093 32.807 -89.82 55.387 C-103.094 77.982 -110.668 103.52 -116.641 128.896 C-117.562 132.792 -118.558 136.448 -120.188 140.125 C-120.518 140.125 -120.847 140.125 -121.188 140.125 C-120.728 131.274 -119.255 122.969 -117.125 114.375 C-116.816 113.117 -116.506 111.86 -116.187 110.564 C-111.658 92.599 -106.206 75.355 -97.188 59.125 C-96.613 58.051 -96.038 56.977 -95.445 55.871 C-91.422 48.613 -86.594 42.399 -81.188 36.125 C-80.647 35.439 -80.107 34.753 -79.551 34.047 C-66.582 17.974 -45.266 6.164 -25.188 2.125 C-24.414 1.951 -23.64 1.778 -22.844 1.599 C-15.191 0.005 -7.795 -0.109 0 0 Z " fill="#ECECEC" transform="translate(284.1875,287.875)"/>
<path d="M0 0 C6.066 5.026 9.355 12.359 11 20 C11.749 29.125 12.016 38.628 8 47 C7.644 47.905 7.288 48.81 6.922 49.742 C-0.75 67.534 -16.284 76.119 -33.344 83.434 C-35.892 84.411 -38.369 85.277 -41 86 C-41.627 86.173 -42.254 86.346 -42.899 86.524 C-49.123 88.09 -55.103 88.334 -61.5 88.312 C-62.481 88.329 -63.462 88.345 -64.473 88.361 C-70.855 88.366 -76.095 87.436 -82 85 C-82 84.67 -82 84.34 -82 84 C-80.022 83.944 -80.022 83.944 -78.004 83.887 C-52.572 83.018 -25.344 79.463 -7 60 C3.363 48.699 5.783 35.136 5.201 20.348 C4.714 14.662 2.852 9.371 1 4 C0.649 2.671 0.307 1.34 0 0 Z " fill="#ECECEC" transform="translate(378,327)"/>
<path d="M0 0 C0.866 0.144 1.732 0.289 2.625 0.438 C2.955 1.428 3.285 2.418 3.625 3.438 C4.615 2.778 5.605 2.117 6.625 1.438 C9.688 1.125 9.688 1.125 12.625 1.438 C13.285 2.428 13.945 3.418 14.625 4.438 C14.276 4.899 13.926 5.36 13.566 5.836 C9.247 12.028 8.383 17.568 8.754 25.031 C8.565 28.565 7.275 29.919 4.742 32.258 C0.323 34.72 -4.527 34.326 -9.375 33.438 C-12.125 31.625 -12.125 31.625 -13.375 28.438 C-14.651 19.814 -12.626 12.533 -7.984 5.258 C-5.419 1.896 -4.311 0.559 0 0 Z " fill="#020202" transform="translate(846.375,754.5625)"/>
<path d="M0 0 C3.63 0.33 7.26 0.66 11 1 C10.83 1.926 10.66 2.851 10.484 3.805 C7.222 21.796 4.503 39.888 2 58 C-1.3 58 -4.6 58 -8 58 C-7.712 47.109 -6.651 36.414 -5.125 25.625 C-4.964 24.462 -4.802 23.299 -4.636 22.101 C-3.536 14.584 -1.95 7.343 0 0 Z " fill="#ECECEC" transform="translate(592,857)"/>
<path d="M0 0 C-1.262 2.593 -2.61 5.066 -4.137 7.512 C-18.752 31.319 -27.608 56.812 -21.558 84.955 C-18.596 97.097 -13.765 108.117 -6 118 C-14.215 115.238 -18.603 108.219 -22.375 100.75 C-23.277 98.846 -24.154 96.93 -25 95 C-25.514 93.863 -25.514 93.863 -26.039 92.703 C-33.687 71.188 -29.583 46.06 -19.988 25.863 C-7.047 0 -7.047 0 0 0 Z " fill="#ECECEC" transform="translate(229,512)"/>
<path d="M0 0 C8.512 6.959 12.622 24.55 14 35 C15.445 50.729 14.371 65.859 4.727 79.016 C1.481 82.746 -2.16 85.899 -6 89 C-6.743 89.616 -7.485 90.232 -8.25 90.867 C-12.232 94.044 -12.232 94.044 -14 95 C-14.99 94.67 -15.98 94.34 -17 94 C-16.256 93.416 -16.256 93.416 -15.496 92.82 C-6.156 85.128 -1.231 76.204 3 65 C3.354 64.243 3.709 63.487 4.074 62.707 C10.526 43.842 6.713 18.22 0 0 Z " fill="#ECECEC" transform="translate(298,531)"/>
<path d="M0 0 C3 1 3 1 4.188 3.375 C5.592 9.642 5.922 15.569 3.625 21.625 C2 24 2 24 0 25 C-3.034 25.506 -5.145 25.488 -7.855 23.941 C-13.201 20.004 -18.099 15.47 -23 11 C-22.67 9.68 -22.34 8.36 -22 7 C-17.218 7 -16.631 7.852 -13.188 10.938 C-8.993 14.45 -6.484 16.117 -1 16 C0.392 14.837 0.392 14.837 0.098 11.621 C0.091 10.227 0.079 8.832 0.062 7.438 C0.058 6.727 0.053 6.016 0.049 5.283 C0.037 3.522 0.019 1.761 0 0 Z " fill="#111112" transform="translate(378,428)"/>
<path d="M0 0 C0.99 0.33 1.98 0.66 3 1 C3 1.66 3 2.32 3 3 C3.906 4.952 4.92 6.834 5.93 8.734 C10.479 18.363 10.494 28.864 7 38.875 C3.282 47.413 -2.354 54.271 -11 58 C-11.99 57.67 -12.98 57.34 -14 57 C-13.238 56.507 -13.238 56.507 -12.461 56.004 C-3.158 49.576 1.576 40.983 4 30 C5.137 21.297 3.619 14.719 -0.004 6.777 C-1.037 3.898 -1.116 2.788 0 0 Z " fill="#1C1C1C" transform="translate(364,561)"/>
<path d="M0 0 C8.73 6.944 15.895 15.526 23.312 23.812 C27.307 28.273 31.398 32.639 35.5 37 C59.841 62.906 59.841 62.906 65 73 C63.515 73.495 63.515 73.495 62 74 C61.49 73.296 60.979 72.592 60.453 71.867 C52.322 60.824 43.375 50.578 34.152 40.438 C31.813 37.789 29.592 35.064 27.375 32.312 C24.317 28.532 21.162 25.043 17.672 21.664 C15.283 19.287 13.105 16.747 10.91 14.191 C7.921 10.762 4.816 7.437 1.723 4.102 C0 2 0 2 0 0 Z " fill="#DFDFDE" transform="translate(370,720)"/>
<path d="M0 0 C7.315 -0.126 7.315 -0.126 10.705 0.498 C14.204 1.031 17.512 1.13 21.051 1.133 C21.709 1.134 22.367 1.135 23.045 1.136 C24.431 1.136 25.817 1.135 27.203 1.13 C29.296 1.125 31.389 1.13 33.482 1.137 C40.393 1.14 47.15 0.958 54 0 C54 1.65 54 3.3 54 5 C35.85 5 17.7 5 -1 5 C-0.67 3.35 -0.34 1.7 0 0 Z " fill="#B4B4B4" transform="translate(599,910)"/>
<path d="M0 0 C20.205 -0.766 35.984 1.479 53 13 C53.66 13.99 54.32 14.98 55 16 C52.431 14.985 49.879 13.948 47.344 12.852 C44.248 11.516 41.131 10.249 38 9 C36.583 8.416 36.583 8.416 35.137 7.82 C26.71 4.762 18.604 4.464 9.694 4.327 C8.246 4.301 8.246 4.301 6.77 4.273 C5.464 4.264 5.464 4.264 4.132 4.255 C2 4 2 4 0 2 C0 1.34 0 0.68 0 0 Z " fill="#D2D2D2" transform="translate(261,646)"/>
<path d="M0 0 C0.99 0.66 1.98 1.32 3 2 C2.125 5.875 2.125 5.875 1 7 C1.36 11.766 2.143 14.274 5 18 C5.188 20.75 5.188 20.75 5 23 C0.723 21.473 -1 18.999 -3 15 C-3.321 11.637 -3.24 8.366 -3 5 C-7.861 5.417 -9.764 7.502 -13 11 C-13.99 11.495 -13.99 11.495 -15 12 C-14.883 6.01 -14.883 6.01 -12.621 3.422 C-8.492 0.207 -5.315 -0.716 0 0 Z " fill="#111112" transform="translate(281,440)"/>
<path d="M0 0 C0.378 0.41 0.755 0.82 1.145 1.242 C6.242 6.232 11.018 7.268 18 8 C14.861 11.26 11.48 14.112 8 17 C7.423 17.598 6.845 18.196 6.25 18.812 C5 20 5 20 3 20 C2.867 19.301 2.734 18.603 2.598 17.883 C2.421 16.973 2.244 16.063 2.062 15.125 C1.888 14.22 1.714 13.315 1.535 12.383 C1.1 10 1.1 10 0 8 C-0.134 5.328 -0.043 2.677 0 0 Z " fill="#ECECEC" transform="translate(179,625)"/>
<path d="M0 0 C0.33 0.99 0.66 1.98 1 3 C-0.125 3.273 -0.125 3.273 -1.273 3.551 C-7.226 5.013 -13.103 6.58 -18.941 8.449 C-21 9 -21 9 -24 9 C-23.67 7.68 -23.34 6.36 -23 5 C-20.75 4.353 -18.5 3.708 -16.25 3.062 C-14.997 2.703 -13.744 2.343 -12.453 1.973 C-8.072 0.739 -4.564 -0.127 0 0 Z " fill="#DFDFDE" transform="translate(268,289)"/>
<path d="M0 0 C0 1.32 0 2.64 0 4 C-12.21 4 -24.42 4 -37 4 C-37 3.67 -37 3.34 -37 3 C-36.173 2.945 -35.345 2.889 -34.493 2.832 C-31.414 2.625 -28.335 2.414 -25.257 2.2 C-23.273 2.064 -21.289 1.931 -19.305 1.799 C-17.429 1.668 -17.429 1.668 -15.516 1.535 C-13.787 1.417 -13.787 1.417 -12.024 1.297 C-7.866 0.889 -4.218 -0.117 0 0 Z " fill="#FEFEFE" transform="translate(653,910)"/>
<path d="M0 0 C5.657 4.139 9.174 9.17 13 15 C12.01 15.66 11.02 16.32 10 17 C8.538 15.086 7.08 13.169 5.625 11.25 C5.212 10.711 4.8 10.172 4.375 9.617 C2.283 6.851 0.404 4.179 -1 1 C-0.67 0.67 -0.34 0.34 0 0 Z " fill="#DFDFDE" transform="translate(422,777)"/>
<path d="M0 0 C1.15 3.45 0.491 4.936 -0.453 8.328 C-1.637 14.11 -1.709 20.114 -2 26 C-4.806 23.194 -4.3 21.354 -4.312 17.438 C-4.148 4.148 -4.148 4.148 0 0 Z " fill="#B4B4B4" transform="translate(321,464)"/>
<path d="M0 0 C4.853 3.86 9.141 8.109 13.375 12.625 C13.911 13.187 14.447 13.75 14.999 14.329 C17.624 17.166 19.277 19.205 20 23 C18.872 21.872 17.744 20.743 16.617 19.613 C15.461 18.46 14.299 17.312 13.133 16.168 C3.52 6.686 3.52 6.686 0 2 C0 1.34 0 0.68 0 0 Z " fill="#C5C6C5" transform="translate(370,720)"/>
<path d="M0 0 C0 0.99 0 1.98 0 3 C-1.642 4.24 -3.296 5.469 -5.004 6.617 C-8.209 8.838 -11.072 11.432 -14 14 C-15.311 15.126 -16.624 16.252 -17.938 17.375 C-18.817 18.129 -18.817 18.129 -19.715 18.898 C-20.139 19.262 -20.563 19.625 -21 20 C-17.469 11.375 -7.931 4.339 0 0 Z " fill="#DFDFDE" transform="translate(150,494)"/>
<path d="M0 0 C-1.446 3.373 -3.205 5.616 -6 8 C-8.25 8.75 -8.25 8.75 -10 9 C-9.359 3.229 -5.597 0 0 0 Z " fill="#111112" transform="translate(862,746)"/>
<path d="M0 0 C3.147 2.647 4.5 5.799 6.188 9.5 C6.717 10.645 7.247 11.789 7.793 12.969 C9 16 9 16 9 19 C8.34 19 7.68 19 7 19 C7 20.65 7 22.3 7 24 C6.67 24 6.34 24 6 24 C5.818 23.022 5.636 22.043 5.449 21.035 C4.076 13.816 2.548 6.916 0 0 Z " fill="#B4B4B4" transform="translate(298,531)"/>
<path d="M0 0 C0.99 0.33 1.98 0.66 3 1 C2.547 3.064 2.087 5.126 1.625 7.188 C1.37 8.336 1.115 9.485 0.852 10.668 C0.105 13.588 -0.804 16.24 -2 19 C-2.33 19 -2.66 19 -3 19 C-2.59 12.422 -2.134 6.259 0 0 Z " fill="#D2D2D2" transform="translate(166,409)"/>
<path d="M0 0 C0.33 0 0.66 0 1 0 C0.584 6.195 -0.603 11.267 -3 17 C-3.33 17 -3.66 17 -4 17 C-4.333 10.793 -3.501 6.701 -1 1 C-0.67 0.67 -0.34 0.34 0 0 Z " fill="#ECECEC" transform="translate(171,394)"/>
<path d="M0 0 C10.46 8.539 10.46 8.539 14 14 C13.67 14.99 13.34 15.98 13 17 C11.015 14.734 9.037 12.462 7.062 10.188 C6.217 9.224 6.217 9.224 5.354 8.24 C4.815 7.618 4.277 6.996 3.723 6.355 C3.225 5.785 2.728 5.214 2.215 4.626 C1 3 1 3 0 0 Z " fill="#DFDFDE" transform="translate(390,742)"/>
<path d="M0 0 C0.99 0.33 1.98 0.66 3 1 C2.814 1.743 2.629 2.485 2.438 3.25 C2.008 5.95 2.149 7.446 3 10 C-0.875 8.125 -0.875 8.125 -2 7 C-2.188 4.562 -2.188 4.562 -2 2 C-1.34 1.34 -0.68 0.68 0 0 Z " fill="#1C1C1C" transform="translate(386,474)"/>
<path d="M0 0 C1.246 2.491 0.873 3.29 0.188 5.938 C0.016 6.627 -0.155 7.317 -0.332 8.027 C-1 10 -1 10 -3 13 C-3.081 11.209 -3.139 9.417 -3.188 7.625 C-3.222 6.627 -3.257 5.63 -3.293 4.602 C-3.148 3.314 -3.148 3.314 -3 2 C-2.01 1.34 -1.02 0.68 0 0 Z " fill="#282829" transform="translate(163,420)"/>
<path d="M0 0 C3 1 3 1 4.688 3.938 C6 7 6 7 6 9 C5.34 9 4.68 9 4 9 C3.67 10.32 3.34 11.64 3 13 C2.867 12.397 2.734 11.793 2.598 11.172 C2.421 10.373 2.244 9.573 2.062 8.75 C1.888 7.961 1.714 7.172 1.535 6.359 C1.052 4.231 0.538 2.115 0 0 Z " fill="#D2D2D2" transform="translate(360,562)"/>
<path d="M0 0 C7.483 6.15 7.483 6.15 10 10 C7 10 7 10 5.176 8.32 C4.561 7.596 3.946 6.871 3.312 6.125 C2.69 5.406 2.067 4.686 1.426 3.945 C0 2 0 2 0 0 Z " fill="#878786" transform="translate(370,720)"/>
<path d="M0 0 C2.003 3.004 2.493 4.71 3.125 8.188 C3.376 9.539 3.376 9.539 3.633 10.918 C3.754 11.605 3.875 12.292 4 13 C2 11.562 2 11.562 0 9 C-0.354 5.972 -0.233 3.035 0 0 Z " fill="#4D4C4D" transform="translate(105,620)"/>
<path d="M0 0 C1.033 2.788 1.045 3.868 0.062 6.75 C-0.288 7.493 -0.639 8.235 -1 9 C-1.66 8.67 -2.32 8.34 -3 8 C-3 5.69 -3 3.38 -3 1 C-2.01 1.495 -2.01 1.495 -1 2 C-0.67 1.34 -0.34 0.68 0 0 Z " fill="#9B9B9B" transform="translate(162,428)"/>
<path d="M0 0 C2.31 1.98 4.62 3.96 7 6 C6.34 6.66 5.68 7.32 5 8 C2.5 5.688 2.5 5.688 0 3 C0 2.01 0 1.02 0 0 Z " fill="#ECECEC" transform="translate(404,757)"/>
<path d="M0 0 C-1.293 2.884 -2.659 4.872 -5 7 C-5 3 -5 3 -3.625 1.25 C-2 0 -2 0 0 0 Z " fill="#D2D2D2" transform="translate(229,512)"/>
<path d="M0 0 C0.66 0.33 1.32 0.66 2 1 C1.67 1.33 1.34 1.66 1 2 C1.66 2.66 2.32 3.32 3 4 C0.69 4.66 -1.62 5.32 -4 6 C-3.67 4.35 -3.34 2.7 -3 1 C-2.01 0.67 -1.02 0.34 0 0 Z " fill="#C5C6C5" transform="translate(248,293)"/>
<path d="M0 0 C0.33 1.32 0.66 2.64 1 4 C-0.65 5.32 -2.3 6.64 -4 8 C-4.66 7.67 -5.32 7.34 -6 7 C-4.02 4.69 -2.04 2.38 0 0 Z " fill="#B4B4B4" transform="translate(256,622)"/>
<path d="M0 0 C0.33 0 0.66 0 1 0 C1.188 2.875 1.188 2.875 1 6 C0.01 6.66 -0.98 7.32 -2 8 C-1.125 1.125 -1.125 1.125 0 0 Z " fill="#020202" transform="translate(163,414)"/>
<path d="M0 0 C2.188 0.312 2.188 0.312 4 1 C2.75 2.562 2.75 2.562 1 4 C-1.188 3.688 -1.188 3.688 -3 3 C-1.75 1.438 -1.75 1.438 0 0 Z " fill="#ECECEC" transform="translate(251,292)"/>
</svg>